<svg width="32" height="32" viewBox="0 0 32 32" fill="none" xmlns="http://www.w3.org/2000/svg">
<g id="arrow-small-right (2) 1">
<path id="Vector" d="M23.9997 16.0004C23.9932 15.2989 23.7105 14.6283 23.213 14.1338L17.493 8.40042C17.2432 8.15208 16.9053 8.0127 16.553 8.0127C16.2008 8.0127 15.8628 8.15208 15.613 8.40042C15.488 8.52437 15.3888 8.67184 15.3212 8.83432C15.2535 8.9968 15.2186 9.17107 15.2186 9.34709C15.2186 9.5231 15.2535 9.69738 15.3212 9.85985C15.3888 10.0223 15.488 10.1698 15.613 10.2938L19.9997 14.6671H6.66634C6.31272 14.6671 5.97358 14.8076 5.72353 15.0576C5.47348 15.3077 5.33301 15.6468 5.33301 16.0004C5.33301 16.354 5.47348 16.6932 5.72353 16.9432C5.97358 17.1933 6.31272 17.3338 6.66634 17.3338H19.9997L15.613 21.7204C15.3619 21.9697 15.2202 22.3086 15.2189 22.6624C15.2177 23.0162 15.357 23.356 15.6063 23.6071C15.8556 23.8582 16.1945 23.9999 16.5483 24.0012C16.9021 24.0024 17.2419 23.8631 17.493 23.6138L23.213 17.8804C23.7138 17.3826 23.9967 16.7065 23.9997 16.0004Z" fill="#EF5152"/>
</g>
</svg>
