<svg width="235" height="235" viewBox="0 0 235 235" fill="none" xmlns="http://www.w3.org/2000/svg">
<g id="Group">
<g id="Group_2">
<g id="Group_3">
<path id="Vector" d="M0.5 234.5V0.5H234.5V234.5H0.5Z" fill="white" stroke="#EDEDED"/>
<path id="Vector_2" d="M25.056 10.2998H10.5191V24.8366H25.056V10.2998Z" fill="#D7D6D6"/>
<path id="Vector_3" d="M223.823 10.2998H162.754V24.8366H223.823V10.2998Z" fill="#D7D6D6"/>
<path id="Vector_4" d="M235 32.5801H0V143.834H235V32.5801Z" fill="#F05253"/>
<g id="Group 26236">
<path id="Vector_5" d="M107.171 88.3138L134.811 60.5281C129.575 57.037 123.258 54.959 116.442 54.959C98.0721 54.959 83.1935 69.8376 83.1935 88.2073C83.1935 106.577 98.0721 121.456 116.442 121.456C123.258 121.456 129.575 119.378 134.811 115.886L107.171 88.3138Z" fill="white"/>
<path id="Vector_6" d="M132 88.2067L146.532 73.8867C144.537 69.7307 141.794 66.0734 138.386 63.0811L113.244 88.2067L138.386 113.12C141.794 110.127 144.537 106.47 146.532 102.314L132 88.2067Z" fill="white"/>
<path id="Vector_7" d="M148.191 98.3246C149.272 95.0829 149.771 91.675 149.771 88.1008C149.771 84.5266 149.189 81.1187 148.191 77.877L137.968 88.1008L148.191 98.3246Z" fill="white"/>
</g>
<path id="Vector_8" d="M113.519 160.562H10.5191V222.947H113.519V160.562Z" fill="#D7D6D6"/>
<path id="Vector_9" d="M223.897 160.562H125.499V171.301H223.897V160.562Z" fill="#D9DADB"/>
<path id="Vector_10" d="M223.897 176.926H125.499V187.664H223.897V176.926Z" fill="#D9DADB"/>
<path id="Vector_11" d="M223.897 195.188H125.499V205.927H223.897V195.188Z" fill="#D9DADB"/>
<path id="Vector_12" d="M223.897 212.281H125.499V223.02H223.897V212.281Z" fill="#D9DADB"/>
</g>
</g>
</g>
</svg>
