<svg width="235" height="235" viewBox="0 0 235 235" fill="none" xmlns="http://www.w3.org/2000/svg">
<g id="Group 26296">
<g id="Group 26254">
<g id="Group 26229">
<line id="Line 29" x1="28.7344" y1="235" x2="28.7344" stroke="#EDEDED"/>
<line id="Line 38" x1="63.5" y1="235" x2="63.5" stroke="#EDEDED"/>
<line id="Line 39" x1="98.5" y1="235" x2="98.5" stroke="#EDEDED"/>
<line id="Line 40" x1="133.5" y1="235" x2="133.5" stroke="#EDEDED"/>
<line id="Line 41" x1="168.5" y1="235" x2="168.5" stroke="#EDEDED"/>
<line id="Line 30" x1="203.5" y1="235" x2="203.5" stroke="#EDEDED"/>
<line id="Line 31" x1="0.562195" y1="205.5" x2="235" y2="205.5" stroke="#EDEDED"/>
<line id="Line 32" y1="29.8594" x2="235" y2="29.8594" stroke="#EDEDED"/>
<line id="Line 34" y1="65.5" x2="235" y2="65.5" stroke="#EDEDED"/>
<line id="Line 35" y1="100.5" x2="235" y2="100.5" stroke="#EDEDED"/>
<line id="Line 36" y1="135.5" x2="235" y2="135.5" stroke="#EDEDED"/>
<line id="Line 37" y1="170.5" x2="235" y2="170.5" stroke="#EDEDED"/>
</g>
<g id="Group 26202">
<path id="Vector" d="M92.4821 118.625L165.394 45.3309C151.581 36.1221 134.917 30.6406 116.938 30.6406C68.4817 30.6406 29.2345 69.8879 29.2345 118.344C29.2345 166.8 68.4817 206.047 116.938 206.047C134.917 206.047 151.581 200.566 165.394 191.357L92.4821 118.625Z" fill="#9A9A9A"/>
<path id="Vector_2" d="M157.978 118.344L196.311 80.57C191.049 69.6071 183.813 59.9597 174.824 52.0664L108.504 118.344L174.824 184.06C183.813 176.167 191.049 166.519 196.311 155.556L157.978 118.344Z" fill="#9A9A9A"/>
<path id="Vector_3" d="M200.688 145.032C203.538 136.481 204.854 127.492 204.854 118.064C204.854 108.635 203.319 99.6458 200.688 91.0947L173.719 118.064L200.688 145.032Z" fill="#9A9A9A"/>
</g>
<g id="Group 26206">
<path id="Line 33" d="M28.9533 182.435L180.432 30.0964" stroke="#CBCBCB"/>
<line id="Line 34_2" x1="28.744" y1="198.573" x2="196.195" y2="29.8647" stroke="#CBCBCB"/>
</g>
<g id="Group 26207">
<line id="Line 33_2" x1="29.0077" y1="39.3817" x2="196.567" y2="205.937" stroke="#CBCBCB"/>
<path id="Line 34_3" d="M28.9534 55.377L180.185 206.047" stroke="#CBCBCB"/>
</g>
<g id="Group 26208">
<g id="Group 26199">
<line id="Line 33_3" x1="70.5978" y1="205.907" x2="204.752" y2="70.7461" stroke="#CBCBCB"/>
<path id="Line 34_4" d="M85.7365 206.046L204.922 86.8592" stroke="#CBCBCB"/>
</g>
<g id="Group 26198">
<path id="Line 33_4" d="M83.4861 30.0781L204.921 148.703" stroke="#CBCBCB"/>
<line id="Line 34_5" x1="67.5345" y1="29.856" x2="205.05" y2="164.051" stroke="#CBCBCB"/>
</g>
</g>
<g id="Group 26210">
<line id="Line 29_2" x1="173.22" y1="206.328" x2="173.22" y2="29.797" stroke="#CBCBCB"/>
<line id="Line 30_2" x1="157.479" y1="206.328" x2="157.479" y2="29.797" stroke="#CBCBCB"/>
</g>
<g id="Group 26211">
<line id="Line 29_3" x1="108.005" y1="206.328" x2="108.005" y2="29.797" stroke="#CBCBCB"/>
<line id="Line 30_3" x1="92.2632" y1="206.328" x2="92.2632" y2="29.797" stroke="#CBCBCB"/>
</g>
<circle id="Ellipse 1055" cx="147.016" cy="71.6808" r="4.84091" stroke="#CBCBCB"/>
<circle id="Ellipse 1058" cx="147.016" cy="165.006" r="4.84091" stroke="#CBCBCB"/>
<circle id="Ellipse 1056" cx="182.996" cy="100.915" r="4.84091" stroke="#CBCBCB"/>
<circle id="Ellipse 1057" cx="182.996" cy="135.209" r="4.84091" stroke="#CBCBCB"/>
</g>
</g>
</svg>
