<svg width="178" height="178" viewBox="0 0 178 178" fill="none" xmlns="http://www.w3.org/2000/svg">
<g id="Group 26188">
<path id="Vector" d="M85.7859 4.5477L86.3123 4.53392L86.2713 4.00898C86.2318 3.50238 86.1074 2.93677 85.7554 2.46844C85.3896 1.98188 84.8251 1.66183 84.0348 1.57285C83.2624 1.48588 82.266 1.61704 80.9813 2.01573C79.6915 2.41601 78.08 3.09596 76.065 4.13825C75.8167 4.2667 75.5566 4.39987 75.2853 4.53767C75.2781 4.54132 75.2709 4.54499 75.2637 4.54865C73.6088 5.38888 71.5394 6.39931 69.1709 7.5558C62.9291 10.6036 54.6097 14.6658 46.3219 19.3011C34.9016 25.6883 23.4358 33.2186 17.4823 40.7746C5.33149 56.1961 2.02685 78.018 3.5373 96.3329C5.04886 114.661 13.4145 137.601 26.5477 150.911C39.6706 164.21 63.4223 174.414 82.1697 176.019C83.6934 176.15 85.2436 176.228 86.8142 176.256C84.2987 176.299 81.8069 176.207 79.3562 175.971C70.1836 175.087 59.4796 172.27 49.4504 167.908C39.4183 163.545 30.0964 157.651 23.661 150.633C17.2246 143.614 11.9918 133.641 8.25359 122.987C4.51683 112.337 2.28649 101.044 1.83199 91.4128C0.922075 72.131 6.37919 49.5775 18.1962 35.078C23.3043 28.8102 32.7052 23.0527 42.4643 18.1395C49.347 14.6744 56.3535 11.6545 62.0956 9.17957C64.4875 8.14862 66.66 7.21223 68.5128 6.37762C68.514 6.37711 68.5151 6.3766 68.5162 6.37609L68.6898 6.29791L68.6898 6.29775C70.4918 5.48335 71.9888 4.76401 73.0709 4.15027C73.9879 3.63015 74.6556 3.22944 75.1154 2.93075C75.3545 2.77544 75.5439 2.64354 75.6852 2.53372C75.8068 2.43919 75.9501 2.31875 76.0334 2.18495C76.0614 2.14001 76.1982 1.915 76.0746 1.65189C75.9474 1.38107 75.6783 1.34897 75.6241 1.34344C75.4687 1.32756 75.2953 1.36948 75.1791 1.40094C74.6422 1.54627 73.612 1.98208 72.5213 2.51482C71.5568 2.98589 70.5101 3.5499 69.6588 4.09408C69.2339 4.36573 68.8479 4.63861 68.5425 4.89796C68.3157 5.09062 68.0963 5.30601 67.9502 5.53417C66.1541 6.34104 64.0505 7.24775 61.7346 8.24596C55.9843 10.7245 48.925 13.7672 42.0146 17.2463C32.2514 22.1616 22.6758 27.9985 17.421 34.4462C5.40741 49.187 -0.0849603 72.0055 0.833102 91.46C1.29259 101.197 3.54426 112.585 7.30999 123.318C11.0743 134.046 16.3644 144.156 22.924 151.309C29.4845 158.463 38.9401 164.428 49.0516 168.825C59.1661 173.224 69.972 176.071 79.2602 176.966C89.3118 177.936 100.014 176.505 110.189 173.37L109.919 172.407C100.59 174.778 90.9672 175.769 82.255 175.023C63.7155 173.435 40.1956 163.319 27.2596 150.208C14.3339 137.108 6.03189 114.414 4.53392 96.2507C3.03484 78.0737 6.33224 56.5418 18.2678 41.3935C24.0846 34.0109 35.3857 26.5633 46.81 20.1739C55.0714 15.5534 63.3419 11.5151 69.5798 8.46922C71.9262 7.32352 73.985 6.31826 75.6475 5.47526C78.8773 4.94434 82.285 4.63938 85.7859 4.5477Z" stroke="#7D7D7D"/>
<g id="Group 26187">
<path id="Vector_2" d="M167.475 60.7402C167.802 61.321 168.119 61.9017 168.426 62.481C169.622 64.7388 170.668 66.976 171.538 69.1206C176.081 80.3123 178.006 94.298 174.292 105.364C173.183 108.668 172.055 112.796 169.835 116.156M168.426 60.0977C168.798 60.6497 169.156 61.2027 169.5 61.7557C170.416 63.228 171.229 64.7004 171.92 66.1537C177.035 76.9061 178.016 91.5715 174.747 102.968C173.574 107.059 171.621 111.387 169.144 115.576" stroke="#7D7D7D"/>
<g id="Group">
<path id="Vector_3" d="M141.663 87.9129L140.955 88.6192C145.82 93.6464 151.411 99.0259 156.464 103.835C157.555 104.873 158.62 105.884 159.648 106.859C160.846 107.996 161.992 109.084 163.067 110.109L168.764 115.645L168.842 115.566L169.479 116.216L170.198 115.522C156 100.631 148.751 93.0866 143.189 87.9056L142.49 88.6211L144.391 90.5645L141.663 87.9129Z" stroke="#7D7D7D"/>
</g>
<g id="Group_2">
<path id="Vector_4" d="M141.526 88.6512L140.805 87.958L140.807 87.9558L152.577 75.6419C153.412 74.7615 154.237 73.8916 155.047 73.0375C159.891 67.9283 164.2 63.3834 167.017 60.534L167.189 60.7016C167.511 60.361 167.838 60.0172 168.169 59.6701L168.904 60.3476L152.876 78.3455C152.859 78.3656 152.842 78.3857 152.825 78.4057C152.489 78.806 152.16 79.1978 151.838 79.5812C148.39 83.6893 145.75 86.8356 143.186 89.2233L142.472 88.5249L152.12 77.6911C152.399 77.3586 152.684 77.02 152.975 76.6753C149.23 80.6221 145.282 84.7693 141.526 88.6512Z" stroke="#7D7D7D"/>
</g>
</g>
<g id="Group 26134">
<g id="Group_3">
<path id="Vector_5" d="M85.1299 89.3504L85.8254 90.0739L85.1311 90.7521C102.214 108.406 120.449 126.751 133.94 140.324C135.981 142.377 137.913 144.321 139.717 146.138L146.908 153.618L146.91 153.62L147.632 152.928C147.225 152.502 146.822 152.078 146.42 151.657L146.51 151.569L146.509 151.569L141.582 146.573C133.293 137.849 126.211 130.337 120.04 123.79C104.414 107.214 94.6238 96.8275 85.8312 88.638L85.1299 89.3504Z" stroke="#7D7D7D"/>
</g>
<g id="Group_4">
<path id="Vector_6" d="M85.1114 90.0575L85.7488 89.3174L85.1154 88.7318L109.931 60.6434C118.115 50.4618 128.526 38.0144 143.112 22.7165L143.241 22.8332C143.579 22.4831 143.91 22.1436 144.235 21.8151L144.965 22.4977L131.197 38.082L111.393 61.0754C110.733 61.844 110.069 62.6149 109.402 63.3874L104.411 69.1818C104.302 69.3199 104.193 69.4575 104.084 69.5946C97.0127 78.5297 91.5762 85.3986 85.831 90.7497L85.1114 90.0575Z" stroke="#7D7D7D"/>
</g>
</g>
<path id="Vector 73" d="M159.369 43.0454L159.705 42.7008L159.373 42.3524L148.223 30.6214L147.783 30.1579L147.439 30.6972L130.728 56.9301L105.377 88.7508L105.086 89.1162L105.431 89.4314L130.777 112.595L158.635 144.416L159.095 144.941L159.444 144.337L165.576 133.723L165.774 133.38L165.487 133.109L141.533 110.503L123.112 89.0155L138.221 64.7931L159.369 43.0454Z" stroke="#7D7D7D"/>
<path id="Vector 74" d="M159.393 43.2991L159.678 42.9615L159.378 42.6376L148.785 31.1859L148.318 30.6809L147.982 31.2811L132.675 58.6096L106.505 89.0164L106.212 89.3559L106.518 89.6835L130.212 115.101L130.217 115.106L158.65 144.713L159.116 145.198L159.447 144.612L165.579 133.719L165.758 133.402L165.511 133.135L145.162 111.069L145.156 111.063L145.151 111.057L123.702 89.2901L139.894 66.466L159.393 43.2991Z" stroke="#7D7D7D"/>
</g>
</svg>
