<svg width="176" height="176" viewBox="0 0 176 176" fill="none" xmlns="http://www.w3.org/2000/svg">
<g id="Group 26212">
<path id="Vector" d="M63.4821 88.3438L136.394 15.0497C122.581 5.84083 105.917 0.359375 87.9379 0.359375C39.4817 0.359375 0.234497 39.6066 0.234497 88.0627C0.234497 136.519 39.4817 175.766 87.9379 175.766C105.917 175.766 122.581 170.285 136.394 161.076L63.4821 88.3438Z" fill="#EF5152"/>
<path id="Vector_2" d="M128.978 88.0623L167.311 50.2887C162.049 39.3258 154.813 29.6785 145.824 21.7852L79.504 88.0623L145.824 153.779C154.813 145.885 162.049 136.238 167.311 125.275L128.978 88.0623Z" fill="#EF5152"/>
<path id="Vector_3" d="M171.688 114.751C174.538 106.2 175.854 97.2104 175.854 87.7823C175.854 78.3541 174.319 69.3646 171.688 60.8135L144.719 87.7823L171.688 114.751Z" fill="#EF5152"/>
</g>
</svg>
