<svg width="40" height="40" viewBox="0 0 40 40" fill="none" xmlns="http://www.w3.org/2000/svg">
<g id="arrow-small-right (1) 4">
<path id="Vector" d="M26.577 11.7534C25.9512 11.1392 25.1086 10.7962 24.2317 10.7988L14.1083 10.7871C13.668 10.7884 13.2461 10.9639 12.9348 11.2752C12.6234 11.5866 12.4479 12.0085 12.4466 12.4488C12.4457 12.6688 12.4884 12.8868 12.5722 13.0902C12.6559 13.2937 12.7792 13.4785 12.9347 13.6341C13.0903 13.7897 13.2752 13.9129 13.4786 13.9967C13.6821 14.0805 13.9001 14.1232 14.1201 14.1222L21.8629 14.1105L10.0778 25.8956C9.76523 26.2081 9.58964 26.6321 9.58964 27.0741C9.58964 27.5161 9.76523 27.94 10.0778 28.2526C10.3904 28.5652 10.8143 28.7408 11.2563 28.7408C11.6983 28.7408 12.1223 28.5652 12.4348 28.2526L24.2199 16.4675L24.2199 24.2221C24.2184 24.6644 24.3926 25.0891 24.7042 25.403C25.0158 25.7168 25.4394 25.894 25.8816 25.8956C26.3239 25.8971 26.7487 25.7229 27.0625 25.4113C27.3764 25.0997 27.5536 24.6761 27.5551 24.2339L27.5433 14.1105C27.546 13.2278 27.1984 12.3802 26.577 11.7534Z" fill="#222222"/>
</g>
</svg>
