<svg width="63" height="49" viewBox="0 0 63 49" fill="none" xmlns="http://www.w3.org/2000/svg">
<g id="Group">
<g id="Group_2">
<path id="Vector" d="M3.27766 47.4478C3.42497 47.4478 3.53545 47.4478 3.64594 47.411C3.75642 47.3741 3.83007 47.3372 3.90373 47.2635C3.97739 47.1898 4.05104 47.116 4.08787 47.0054C4.16152 46.8948 4.19835 46.7843 4.23518 46.6368L4.38249 46.2313H4.86125L4.45614 47.9271H0L0.0736542 47.5216H0.184138C0.257794 47.5216 0.331448 47.5216 0.405104 47.5216C0.478759 47.5216 0.552414 47.4847 0.626069 47.4478C0.699724 47.411 0.736552 47.3741 0.77338 47.3004C0.810208 47.2266 0.847036 47.1529 0.883864 47.0792L1.65724 43.4295C1.69407 43.282 1.69407 43.2083 1.69407 43.1714C1.69407 43.1345 1.69407 43.0608 1.65724 43.0239C1.62042 42.9871 1.58359 42.9502 1.54676 42.9502C1.50993 42.9133 1.43628 42.9133 1.36262 42.9133C1.28897 42.9133 1.21531 42.9133 1.14166 42.9133H1.03118L1.10483 42.5078H3.71959L3.64594 42.9133H3.53545C3.4618 42.9133 3.38814 42.9133 3.27766 42.9133C3.20401 42.9133 3.13035 42.9502 3.0567 42.9871C2.98304 43.0239 2.94621 43.0608 2.87256 43.1345C2.7989 43.2083 2.7989 43.282 2.76207 43.3926L1.91504 47.4847H3.27766V47.4478Z" fill="#151515"/>
<path id="Vector_2" d="M6.7758 46.1209L6.40753 46.8214C6.3707 46.8951 6.33387 47.0057 6.29704 47.0794C6.26021 47.1532 6.26022 47.2269 6.26022 47.2638C6.26022 47.3744 6.29704 47.4112 6.3707 47.4849C6.44435 47.5218 6.55484 47.5587 6.70215 47.5587H6.84946L6.7758 47.9642H4.78711L4.86076 47.5587H5.00807C5.08173 47.5587 5.15539 47.5587 5.19221 47.5218C5.22904 47.5218 5.3027 47.4849 5.33952 47.4481C5.37635 47.4112 5.45001 47.3375 5.48684 47.2638C5.52366 47.19 5.59732 47.0794 5.67097 46.9688L8.24891 42.5449H9.28008L9.90615 47.0426C9.90615 47.1163 9.94298 47.19 9.94298 47.2638C9.94298 47.3375 9.97981 47.3744 10.0166 47.4481C10.0535 47.4849 10.0903 47.5218 10.1639 47.5587C10.2008 47.5955 10.2744 47.5955 10.3481 47.5955H10.4954L10.4217 48.0011H7.91746L7.99111 47.5955H8.17525C8.32256 47.5955 8.46988 47.5587 8.58036 47.5218C8.69084 47.4849 8.72767 47.3744 8.72767 47.2638C8.72767 47.2269 8.72767 47.19 8.72767 47.1532C8.72767 47.1163 8.72767 47.0794 8.72767 47.0426L8.61719 46.2315H6.7758V46.1209ZM8.43305 44.3882C8.43305 44.2776 8.39622 44.167 8.39622 44.0564C8.39622 43.9458 8.35939 43.8721 8.35939 43.7615C8.35939 43.6509 8.35939 43.5772 8.32256 43.5034C8.32256 43.4297 8.32256 43.3191 8.32256 43.2454C8.28574 43.3191 8.24891 43.4297 8.21208 43.5034C8.17525 43.5772 8.13843 43.6509 8.1016 43.7246C8.06477 43.7984 8.02794 43.909 7.95429 43.9827C7.91746 44.0564 7.8438 44.167 7.77015 44.3145L7.0336 45.6785H8.58036L8.43305 44.3882Z" fill="#151515"/>
<path id="Vector_3" d="M16.8662 42.8762H16.7925C16.7189 42.8762 16.6452 42.8762 16.5715 42.9131C16.4979 42.9131 16.4611 42.95 16.3874 42.9868C16.3138 43.0237 16.2401 43.0974 16.1664 43.1712C16.0928 43.2449 16.0191 43.3186 15.9086 43.4292L14.4724 44.9407L15.3931 47.1158C15.4667 47.2633 15.5404 47.3739 15.6509 47.4476C15.7613 47.5213 15.835 47.5213 15.9455 47.5213H16.056L15.9823 47.9269H13.478L13.5517 47.5213H13.6622C13.8095 47.5213 13.92 47.4845 13.9936 47.4476C14.0673 47.4107 14.1041 47.337 14.1041 47.2633C14.1041 47.1895 14.1041 47.1158 14.0673 47.0052C14.0304 46.8946 13.9936 46.8209 13.9568 46.7103L13.478 45.678L12.41 46.784C12.3364 46.8946 12.2627 46.9683 12.1891 47.0421C12.1154 47.1158 12.1154 47.2264 12.1154 47.2633C12.1154 47.3001 12.1154 47.337 12.1522 47.3739C12.1522 47.4107 12.1891 47.4107 12.2259 47.4476C12.2627 47.4845 12.2995 47.4845 12.3364 47.4845C12.3732 47.4845 12.4468 47.4845 12.5573 47.4845H12.5942L12.5205 47.89H10.6055L10.6791 47.4845H10.7528C10.8264 47.4845 10.9001 47.4845 10.9737 47.4476C11.0474 47.4107 11.1211 47.4107 11.1579 47.3739C11.2315 47.337 11.3052 47.2633 11.3788 47.1895C11.4525 47.1158 11.563 47.0421 11.6366 46.9315L13.3307 45.1988L12.4837 43.2449C12.4469 43.1712 12.41 43.0974 12.3732 43.0237C12.3364 42.9868 12.2995 42.95 12.2627 42.9131C12.2259 42.8762 12.1522 42.8762 12.1154 42.8762C12.0786 42.8762 12.0049 42.8762 11.9313 42.8762H11.784L11.8576 42.4707H14.3619L14.2882 42.8762H14.1041C13.9936 42.8762 13.8831 42.9131 13.8463 42.95C13.7726 42.9868 13.7726 43.0237 13.7726 43.0974C13.7726 43.1343 13.7726 43.208 13.8095 43.2818C13.8463 43.3555 13.8831 43.4292 13.92 43.5398L14.3251 44.4983L15.2089 43.5398C15.2826 43.4661 15.3562 43.3924 15.3931 43.3186C15.4299 43.2449 15.4667 43.1712 15.4667 43.0974C15.4667 43.0237 15.4299 42.9868 15.3562 42.95C15.2826 42.9131 15.2089 42.9131 15.0984 42.9131L15.1721 42.5076H16.9398L16.8662 42.8762Z" fill="#151515"/>
<path id="Vector_4" d="M24.2321 42.4707L24.1585 42.8762H24.048C23.9743 42.8762 23.9007 42.8762 23.827 42.8762C23.7534 42.8762 23.6797 42.9131 23.606 42.95C23.5324 42.9868 23.4956 43.0237 23.4587 43.0974C23.4219 43.1712 23.3851 43.2449 23.3483 43.3555L22.5749 47.0789C22.5749 47.1158 22.5749 47.1527 22.538 47.1895C22.5012 47.2264 22.538 47.2633 22.538 47.2633C22.538 47.3001 22.538 47.3739 22.5749 47.4107C22.6117 47.4476 22.6485 47.4845 22.6854 47.4845C22.7222 47.5213 22.7958 47.5213 22.8695 47.5213C22.9431 47.5213 23.0168 47.5213 23.0905 47.5213H23.2009L23.1273 47.9269H20.5494L20.623 47.5213H20.7335C20.8071 47.5213 20.8808 47.5213 20.9545 47.5213C21.0281 47.5213 21.1018 47.4845 21.1754 47.4476C21.2491 47.4107 21.2859 47.3739 21.3227 47.3001C21.3596 47.2264 21.3964 47.1527 21.4332 47.0421L22.2434 43.208L19.7391 47.89H19.1499L18.5238 43.208L17.7136 47.0052C17.7136 47.0789 17.6768 47.1158 17.6768 47.1527C17.6768 47.1895 17.6768 47.2264 17.6768 47.2264C17.6768 47.2633 17.6768 47.337 17.7136 47.3739C17.7505 47.4107 17.7873 47.4476 17.8241 47.4476C17.8609 47.4845 17.9346 47.4845 18.0082 47.4845C18.0819 47.4845 18.1556 47.4845 18.2292 47.4845H18.266L18.1924 47.89H16.2773L16.351 47.4845H16.4615C16.5351 47.4845 16.6088 47.4845 16.6825 47.4845C16.7561 47.4845 16.8298 47.4476 16.9034 47.4107C16.9771 47.3739 17.0139 47.337 17.0507 47.2633C17.0876 47.1895 17.1244 47.1158 17.1612 47.0421L17.9346 43.3923C17.9714 43.2449 17.9714 43.1712 17.9714 43.1343C17.9714 43.0974 17.9714 43.0237 17.9346 42.9868C17.8978 42.95 17.8609 42.9131 17.8241 42.9131C17.7873 42.8762 17.7136 42.8762 17.64 42.8762C17.5663 42.8762 17.4927 42.8762 17.419 42.8762H17.3085L17.3822 42.4707H19.5182L20.0338 46.1573L22.0225 42.4707H24.2321Z" fill="#151515"/>
<path id="Vector_5" d="M23.5332 47.9269L23.6069 47.5213H23.7173C23.791 47.5213 23.8647 47.5213 23.9383 47.5213C24.012 47.5213 24.0856 47.4845 24.1593 47.4476C24.2329 47.4107 24.2698 47.3739 24.3066 47.3001C24.3434 47.2264 24.3802 47.1527 24.4171 47.0789L25.1904 43.3186C25.1904 43.2818 25.1904 43.2449 25.2273 43.208C25.2273 43.1712 25.2273 43.1343 25.2273 43.1343C25.2273 43.0974 25.2273 43.0237 25.1904 42.9868C25.1536 42.95 25.1168 42.9131 25.08 42.9131C25.0431 42.8762 24.9695 42.8762 24.8958 42.8762C24.8222 42.8762 24.7485 42.8762 24.6749 42.8762H24.5644L24.638 42.4707H27.2528L27.1791 42.8762H27.0687C26.995 42.8762 26.9214 42.8762 26.8109 42.8762C26.7372 42.8762 26.6636 42.9131 26.5899 42.95C26.5162 42.9868 26.4794 43.0237 26.4058 43.0974C26.3321 43.1712 26.3321 43.2449 26.2953 43.3555L25.5219 47.0789C25.5219 47.1158 25.5219 47.1527 25.4851 47.1895C25.4482 47.2264 25.4851 47.2633 25.4851 47.2633C25.4851 47.3001 25.4851 47.3739 25.5219 47.4107C25.5587 47.4476 25.5956 47.4845 25.6324 47.4845C25.6692 47.5213 25.7429 47.5213 25.8165 47.5213C25.8902 47.5213 25.9638 47.5213 26.0375 47.5213H26.148L26.0743 47.9269H23.5332Z" fill="#151515"/>
<path id="Vector_6" d="M36.5335 42.4707L36.4598 42.8762H36.3493C36.2757 42.8762 36.202 42.8762 36.1284 42.8762C36.0547 42.8762 35.981 42.9131 35.9074 42.95C35.8337 42.9868 35.7969 43.0237 35.7601 43.0974C35.7233 43.1712 35.6864 43.2449 35.6496 43.3555L34.8762 47.0789C34.8762 47.1158 34.8762 47.1527 34.8394 47.1895C34.8026 47.2264 34.8394 47.2633 34.8394 47.2633C34.8394 47.3001 34.8394 47.3739 34.8762 47.4107C34.913 47.4476 34.9499 47.4845 34.9867 47.4845C35.0235 47.5213 35.0972 47.5213 35.1708 47.5213C35.2445 47.5213 35.3181 47.5213 35.3918 47.5213H35.5023L35.4286 47.9269H32.8507L32.9243 47.5213H33.0348C33.1085 47.5213 33.1821 47.5213 33.2558 47.5213C33.3295 47.5213 33.4031 47.4845 33.4768 47.4476C33.5504 47.4107 33.5872 47.3739 33.6241 47.3001C33.6609 47.2264 33.6977 47.1527 33.7346 47.0421L34.5448 43.208L32.0405 47.89H31.5249L30.8988 43.208L30.0886 47.0052C30.0886 47.0789 30.0518 47.1158 30.0518 47.1527C30.0518 47.1895 30.0518 47.2264 30.0518 47.2264C30.0518 47.2633 30.0518 47.337 30.0886 47.3739C30.1254 47.4107 30.1623 47.4476 30.1991 47.4476C30.2359 47.4845 30.3096 47.4845 30.3832 47.4845C30.4569 47.4845 30.5306 47.4845 30.6042 47.4845H30.641L30.5674 47.89H28.6523L28.726 47.4845H28.8365C28.9101 47.4845 28.9838 47.4845 29.0574 47.4845C29.1311 47.4845 29.2048 47.4476 29.2784 47.4107C29.3521 47.3739 29.3889 47.337 29.4257 47.2633C29.4625 47.1895 29.4994 47.1158 29.5362 47.0421L30.3096 43.3923C30.3464 43.2449 30.3464 43.1712 30.3464 43.1343C30.3464 43.0974 30.3464 43.0237 30.3096 42.9868C30.2728 42.95 30.2359 42.9131 30.1991 42.9131C30.1623 42.8762 30.0886 42.8762 30.015 42.8762C29.9413 42.8762 29.8677 42.8762 29.794 42.8762H29.6835L29.7572 42.4707H31.8932L32.4088 46.1573L34.3975 42.4707H36.5335Z" fill="#151515"/>
<path id="Vector_7" d="M36.459 45.8987C36.459 45.6407 36.4958 45.3826 36.5326 45.1246C36.5695 44.8665 36.6799 44.6084 36.7904 44.3504C36.9009 44.0923 37.0482 43.8343 37.2324 43.6131C37.4165 43.3919 37.6375 43.1707 37.8584 42.9863C38.0794 42.802 38.374 42.6545 38.6686 42.5439C38.9633 42.4333 39.2947 42.3965 39.663 42.3965C39.9576 42.3965 40.2154 42.4334 40.4732 42.5071C40.731 42.5808 40.952 42.7283 41.1361 42.8757C41.3202 43.0601 41.4675 43.2813 41.6149 43.5393C41.7622 43.7974 41.799 44.1292 41.799 44.4978C41.799 44.719 41.7622 44.9771 41.7253 45.2352C41.6517 45.4932 41.578 45.7513 41.4675 46.0093C41.3571 46.2674 41.2097 46.5255 41.0256 46.7467C40.8415 46.9679 40.6573 47.189 40.3995 47.3734C40.1786 47.5577 39.884 47.7052 39.5893 47.8158C39.2947 47.9264 38.9633 47.9632 38.595 47.9632C38.3004 47.9632 38.0057 47.9264 37.748 47.8158C37.4902 47.742 37.2692 47.5946 37.0851 47.4102C36.9009 47.2259 36.7536 47.0047 36.6431 46.7467C36.4958 46.5623 36.459 46.2305 36.459 45.8987ZM37.7111 46.0831C37.7111 46.3411 37.748 46.5623 37.7848 46.7467C37.8216 46.931 37.8953 47.0784 38.0057 47.189C38.1162 47.2996 38.2267 47.3734 38.3372 47.4471C38.4477 47.5208 38.595 47.5208 38.7423 47.5208C38.9633 47.5208 39.1474 47.484 39.3315 47.3734C39.5157 47.2628 39.663 47.1522 39.8103 46.9678C39.9576 46.7835 40.0681 46.5992 40.1786 46.378C40.2891 46.1568 40.3627 45.9356 40.4364 45.6775C40.51 45.4563 40.5469 45.1983 40.5837 44.9771C40.6205 44.7559 40.6205 44.5347 40.6205 44.3135C40.6205 44.0554 40.5837 43.8343 40.5469 43.6868C40.51 43.5025 40.4364 43.355 40.3259 43.2444C40.2522 43.1338 40.1418 43.0232 39.9944 42.9863C39.884 42.9126 39.7366 42.9126 39.5893 42.9126C39.3684 42.9126 39.1842 42.9495 39.0001 43.0601C38.816 43.1707 38.6686 43.2813 38.5213 43.4656C38.374 43.6499 38.2635 43.8343 38.1531 44.0554C38.0426 44.2766 37.9689 44.4978 37.8953 44.7559C37.8216 45.014 37.7848 45.2352 37.748 45.4564C37.7111 45.6775 37.7111 45.8987 37.7111 46.0831Z" fill="#151515"/>
<path id="Vector_8" d="M42.6462 47.9271L42.7198 47.5216H42.8303C42.904 47.5216 42.9776 47.5216 43.0513 47.5216C43.1249 47.5216 43.1986 47.4847 43.2723 47.4478C43.3459 47.411 43.3827 47.3741 43.4196 47.3004C43.4564 47.2266 43.4932 47.1529 43.53 47.0792L44.3771 42.9502H43.751C43.6405 42.9502 43.53 42.9502 43.4564 42.9871C43.3827 43.0239 43.3091 43.0608 43.2354 43.1345C43.1618 43.2083 43.1249 43.282 43.0881 43.3557C43.0513 43.4295 43.0145 43.5401 42.9776 43.6507L42.8671 43.9824H42.3516L42.683 42.5078H47.4338L47.176 43.9824H46.6604C46.6604 43.9824 46.6604 43.9087 46.6604 43.8718C46.6604 43.7981 46.6604 43.7613 46.6972 43.6875C46.6972 43.6138 46.6972 43.5401 46.7341 43.5032C46.7709 43.4663 46.7341 43.3926 46.7341 43.3926C46.7341 43.2451 46.6972 43.1714 46.6236 43.0977C46.5499 43.0239 46.4026 42.9871 46.2185 42.9871H45.6292L44.7454 47.116C44.7454 47.1529 44.7454 47.1898 44.7454 47.2266C44.7454 47.2635 44.7454 47.3004 44.7454 47.3004C44.7454 47.3372 44.7454 47.411 44.7822 47.4478C44.819 47.4847 44.8558 47.5216 44.8927 47.5216C44.9295 47.5584 45.0032 47.5584 45.0768 47.5584C45.1505 47.5584 45.2241 47.5584 45.2978 47.5584H45.4083L45.3346 47.964H42.6462V47.9271Z" fill="#151515"/>
<path id="Vector_9" d="M47.1387 45.8987C47.1387 45.6407 47.1755 45.3826 47.2123 45.1246C47.286 44.8665 47.3596 44.6084 47.4701 44.3504C47.5806 44.0923 47.7279 43.8343 47.9121 43.6131C48.0962 43.3919 48.3172 43.1707 48.5381 42.9863C48.7591 42.802 49.0537 42.6545 49.3483 42.5439C49.643 42.4333 49.9744 42.3965 50.3427 42.3965C50.6373 42.3965 50.8951 42.4334 51.1529 42.5071C51.4107 42.5808 51.6316 42.7283 51.8158 42.8757C51.9999 43.0601 52.1472 43.2813 52.2945 43.5393C52.405 43.7974 52.4787 44.1292 52.4787 44.4978C52.4787 44.719 52.4419 44.9771 52.405 45.2352C52.3314 45.4932 52.2577 45.7513 52.1472 46.0093C52.0368 46.2674 51.8894 46.5255 51.7053 46.7467C51.5212 46.9679 51.337 47.189 51.0792 47.3734C50.8583 47.5577 50.5636 47.7052 50.269 47.8158C49.9744 47.9264 49.643 47.9632 49.2747 47.9632C48.9801 47.9632 48.6854 47.9264 48.4276 47.8158C48.1698 47.742 47.9489 47.5946 47.7647 47.4102C47.5806 47.2259 47.4333 47.0047 47.3228 46.7467C47.2123 46.4886 47.1387 46.2305 47.1387 45.8987ZM48.3908 46.0831C48.3908 46.3411 48.4276 46.5623 48.4645 46.7467C48.5013 46.931 48.5749 47.0784 48.6854 47.189C48.7959 47.2996 48.8696 47.3734 49.0169 47.4471C49.1274 47.484 49.2747 47.5208 49.422 47.5208C49.643 47.5208 49.8271 47.484 50.0112 47.3734C50.1954 47.2628 50.3427 47.1522 50.49 46.9678C50.6373 46.7835 50.7478 46.5992 50.8583 46.378C50.9687 46.1568 51.0424 45.9356 51.1161 45.6775C51.1897 45.4563 51.2265 45.1983 51.2634 44.9771C51.3002 44.7559 51.3002 44.5347 51.3002 44.3135C51.3002 44.0554 51.2634 43.8343 51.2265 43.6868C51.1897 43.5393 51.1161 43.355 51.0056 43.2444C50.9319 43.1338 50.8214 43.0232 50.6741 42.9863C50.5636 42.9126 50.4163 42.9126 50.269 42.9126C50.0481 42.9126 49.8639 42.9495 49.6798 43.0601C49.4956 43.1707 49.3483 43.2813 49.201 43.4656C49.0537 43.6499 48.9432 43.8343 48.8327 44.0554C48.7223 44.2766 48.6486 44.4978 48.5749 44.7559C48.5013 44.9771 48.4645 45.2352 48.4276 45.4564C48.3908 45.6775 48.3908 45.8987 48.3908 46.0831Z" fill="#151515"/>
<path id="Vector_10" d="M56.125 42.4707C56.7143 42.4707 57.193 42.5813 57.4876 42.8025C57.7823 43.0237 57.9296 43.3186 57.9296 43.761C57.9296 44.0191 57.8927 44.2403 57.8191 44.4246C57.7454 44.6089 57.635 44.7564 57.4876 44.867C57.3403 44.9776 57.2298 45.0882 57.0457 45.1619C56.8984 45.2356 56.7143 45.2725 56.567 45.3094L57.0825 46.7103C57.1194 46.8577 57.193 46.9683 57.2298 47.0789C57.2667 47.1895 57.3403 47.2633 57.3772 47.337C57.4508 47.4107 57.4876 47.4476 57.5613 47.4845C57.635 47.5213 57.7086 47.5213 57.7823 47.5213H57.8191L57.7454 47.9268H57.6718C57.414 47.9268 57.193 47.9268 56.9721 47.89C56.7879 47.8531 56.6038 47.8163 56.4565 47.7794C56.3092 47.7057 56.1987 47.6319 56.125 47.5213C56.0514 47.4107 55.9409 47.2633 55.9041 47.0789L55.4253 45.5674H54.9097L54.6151 46.9683C54.5783 47.0421 54.5783 47.1158 54.5783 47.1895C54.5783 47.2264 54.5783 47.2633 54.5783 47.3001C54.5783 47.337 54.5783 47.4107 54.6151 47.4476C54.6519 47.4845 54.6887 47.5213 54.7256 47.5213C54.7624 47.5582 54.8361 47.5582 54.9097 47.5582C54.9834 47.5582 55.057 47.5582 55.1307 47.5582H55.3885L55.3148 47.9637H52.5527L52.6264 47.5582H52.7369C52.8105 47.5582 52.8842 47.5582 52.9578 47.5582C53.0315 47.5582 53.1051 47.5213 53.1788 47.4845C53.2525 47.4476 53.2893 47.4107 53.3261 47.337C53.3629 47.2633 53.3998 47.1895 53.4366 47.1158L54.21 43.4661C54.2468 43.3186 54.2468 43.2449 54.2468 43.208C54.2468 43.1712 54.2468 43.0974 54.21 43.0606C54.1732 43.0237 54.1363 42.9868 54.0995 42.9868C54.0627 42.95 53.989 42.95 53.9154 42.95C53.8417 42.95 53.768 42.95 53.6944 42.95H53.5839L53.6576 42.5444H56.125V42.4707ZM55.0202 45.125H55.4989C55.6463 45.125 55.7936 45.0882 55.9409 45.0513C56.0882 45.0144 56.1987 44.9407 56.3092 44.8301C56.4196 44.7195 56.4933 44.6089 56.567 44.4246C56.6406 44.2771 56.6406 44.0559 56.6406 43.8347C56.6406 43.6504 56.6406 43.5029 56.6038 43.3923C56.5669 43.2818 56.5301 43.1712 56.4565 43.0974C56.3828 43.0237 56.3092 42.9868 56.2355 42.95C56.1618 42.9131 56.0145 42.9131 55.9041 42.9131H55.5358L55.0202 45.125Z" fill="#151515"/>
<path id="Vector_11" d="M60.0657 48.0001C59.7343 48.0001 59.4765 47.9632 59.2555 47.9264C59.0345 47.8526 58.8136 47.7789 58.6663 47.7052C58.5189 47.6314 58.4085 47.484 58.298 47.3365C58.1875 47.189 58.1875 47.0416 58.1875 46.8941C58.1875 46.7835 58.2243 46.6729 58.2612 46.5992C58.298 46.5255 58.3716 46.4517 58.4821 46.378C58.5558 46.3043 58.6663 46.2674 58.7767 46.2305C58.8872 46.1937 59.0345 46.1937 59.1818 46.1937C59.1818 46.4149 59.2187 46.6361 59.2555 46.7835C59.2923 46.9678 59.366 47.0784 59.4765 47.2259C59.5501 47.3365 59.6606 47.4102 59.8079 47.484C59.9184 47.5208 60.0657 47.5577 60.213 47.5577C60.3603 47.5577 60.4708 47.5208 60.5813 47.484C60.6918 47.4471 60.8023 47.3734 60.8759 47.2996C60.9496 47.2259 61.0232 47.1522 61.0601 47.0416C61.0969 46.931 61.1337 46.8573 61.1337 46.7467C61.1337 46.6361 61.1337 46.5255 61.0969 46.4517C61.0601 46.378 61.0232 46.2674 60.9496 46.1937C60.8759 46.1199 60.8023 46.0093 60.655 45.9356C60.5445 45.8619 60.3603 45.7513 60.1762 45.6407C59.9921 45.5301 59.8079 45.4195 59.6606 45.3089C59.5133 45.1983 59.4028 45.0508 59.2923 44.9402C59.1818 44.8296 59.1082 44.6453 59.0714 44.4978C59.0345 44.3504 58.9977 44.166 58.9977 43.9448C58.9977 43.7237 59.0345 43.5025 59.145 43.3181C59.2555 43.1338 59.366 42.9495 59.5501 42.8389C59.7343 42.6914 59.9184 42.5808 60.1762 42.5071C60.434 42.4334 60.6918 42.3965 60.9864 42.3965C61.281 42.3965 61.502 42.4333 61.723 42.4702C61.9439 42.5071 62.0912 42.5808 62.2385 42.6545C62.3859 42.7283 62.4963 42.8389 62.57 42.9126C62.6436 43.0232 62.6805 43.1338 62.6805 43.2444C62.6805 43.4656 62.6068 43.6131 62.4595 43.7237C62.3122 43.8343 62.0544 43.908 61.6861 43.908C61.6861 43.7974 61.6861 43.6868 61.6493 43.5393C61.6125 43.4287 61.5756 43.3181 61.5388 43.2075C61.4652 43.0969 61.3915 43.0232 61.3179 42.9495C61.2442 42.8757 61.0969 42.8389 60.9496 42.8389C60.8391 42.8389 60.7654 42.8389 60.655 42.8757C60.5445 42.9126 60.4708 42.9495 60.3972 43.0232C60.3235 43.0969 60.2498 43.1707 60.213 43.2813C60.1762 43.3919 60.1394 43.5025 60.1394 43.6131C60.1394 43.7237 60.1762 43.8711 60.213 43.9448C60.2498 44.0186 60.3235 44.1292 60.3972 44.2029C60.4708 44.2766 60.5813 44.3504 60.7286 44.4241C60.8391 44.4978 60.9864 44.5716 61.1705 44.6822C61.5388 44.9034 61.8334 45.1246 62.0176 45.3826C62.2017 45.6407 62.2754 45.9356 62.2754 46.2305C62.2754 46.4886 62.2385 46.7467 62.1281 46.9678C62.0176 47.189 61.9071 47.3734 61.723 47.484C61.5388 47.5946 61.3179 47.742 61.0601 47.8158C60.6918 47.9632 60.3972 48.0001 60.0657 48.0001Z" fill="#151515"/>
</g>
<g id="Group_3">
<path id="Vector_12" d="M20.5147 22.8937C19.5203 22.5987 18.2314 23.1517 17.6053 24.1471C16.9792 25.1425 17.3107 26.1747 18.305 26.4697C19.2994 26.7646 20.5883 26.2116 21.2144 25.2162C21.8036 24.2577 21.4722 23.2255 20.5147 22.8937Z" fill="#151515"/>
<path id="Vector_13" d="M46.1104 23.4844C45.116 23.2263 43.8271 23.8162 43.2747 24.8116C42.6854 25.8069 43.0537 26.8761 44.048 27.1341C45.0424 27.3922 46.3314 26.8023 46.8838 25.8069C47.473 24.8116 47.1416 23.7425 46.1104 23.4844Z" fill="#151515"/>
<path id="Vector_14" d="M36.6815 30.3041C37.5654 30.894 38.4492 31.447 39.3699 31.9262C50.3077 37.8616 55.9055 22.3042 46.6618 18.6545C37.5654 15.0417 30.0893 33.9538 19.3725 35.2073C8.83979 35.7971 5.26751 21.8987 14.0325 17.2536C18.6359 14.8573 22.0241 16.8112 25.8542 20.3135C21.9504 17.7329 18.6728 15.9633 14.769 18.5439C13.1486 19.5762 11.9333 21.1983 11.4546 23.0047C9.87097 28.9769 15.6529 34.2119 20.9193 31.8894C27.8429 28.8664 32.2622 19.7605 40.4379 16.1476C47.693 12.9403 55.6477 20.4609 52.8857 28.1659C51.1548 33.0691 45.7779 35.4285 41.8742 33.8801C39.8855 33.0691 38.2283 31.705 36.6815 30.3041Z" fill="#151515"/>
<path id="Vector_15" d="M37.6771 9.91678L36.3145 8.25781L43.2749 9.25319L37.6771 9.91678Z" fill="#151515"/>
<path id="Vector_16" d="M37.3072 3.2442C37.2335 3.1336 37.1231 3.023 36.9757 3.023L35.4658 2.65434L24.1597 0L33.8454 3.023L33.5139 3.35479L23.5337 13.9722C23.3863 14.1565 23.2759 14.3408 23.2759 14.5989C23.2022 15.2256 23.6441 15.7786 24.2702 15.8155H24.307L33.8454 16.3684L22.0605 26.7277L35.7604 16.4053C35.9077 16.2947 36.0182 16.1472 36.0182 15.9629C36.0551 15.5943 35.7973 15.2993 35.429 15.2625L26.7377 13.9722L37.0862 3.94464C37.344 3.79718 37.4545 3.50226 37.3072 3.2442Z" fill="#151515"/>
</g>
</g>
</svg>
