<svg width="135" height="30" viewBox="0 0 135 30" fill="none" xmlns="http://www.w3.org/2000/svg">
<g id="Group">
<g id="Group_2">
<g id="Group_3">
<path id="Vector" d="M116.896 3.31887C116.896 7.37289 116.896 11.4147 116.896 15.5053C115.861 15.5053 114.875 15.5053 113.84 15.5053C113.84 10.3921 113.84 5.30328 113.84 0.129231C115.386 0.129231 116.896 0.117053 118.417 0.141402C118.6 0.141402 118.795 0.360538 118.941 0.506629C122.849 4.25629 126.745 8.01813 130.64 11.7678C130.823 11.9504 131.018 12.1087 131.322 12.3887C131.334 12.0356 131.359 11.8043 131.359 11.573C131.359 7.95726 131.371 4.35369 131.346 0.737942C131.346 0.141405 131.529 -0.0412086 132.101 0.00748826C132.722 0.0561852 133.355 0.0318367 133.988 0.00748826C134.366 -0.00468596 134.487 0.129231 134.487 0.494457C134.475 1.20056 134.487 1.91884 134.487 2.62495C134.487 6.64244 134.475 10.6599 134.499 14.6774C134.499 15.2496 134.366 15.4688 133.757 15.4322C132.661 15.3835 131.566 15.4444 130.47 15.3957C130.141 15.3835 129.764 15.2253 129.532 15.0061C125.6 11.2565 121.692 7.47028 117.772 3.70845C117.553 3.50149 117.309 3.33105 117.066 3.14844C117.017 3.22148 116.956 3.27017 116.896 3.31887Z" fill="#151515"/>
<path id="Vector_2" d="M41.5124 3.24564C38.7123 3.24564 36.0096 3.24564 33.2461 3.24564C33.2461 2.21083 33.2461 1.22472 33.2461 0.177734C39.7958 0.177734 46.3577 0.177734 52.9562 0.177734C52.9562 1.16385 52.9562 2.14996 52.9562 3.20912C50.2291 3.20912 47.4778 3.20912 44.6777 3.20912C44.6533 3.53782 44.629 3.80566 44.629 4.06132C44.629 7.53097 44.6168 11.0006 44.6412 14.4703C44.6412 15.0668 44.4707 15.2494 43.8864 15.2129C43.302 15.1642 42.7055 15.1764 42.1211 15.2129C41.6463 15.2373 41.5002 15.0912 41.5002 14.592C41.5246 11.6459 41.5124 8.71187 41.5124 5.76571C41.5124 4.95003 41.5124 4.14653 41.5124 3.24564Z" fill="#151515"/>
<path id="Vector_3" d="M86.7872 0.118164C86.7872 1.20167 86.7872 2.18779 86.7872 3.23477C84.0115 3.23477 81.2845 3.23477 78.4844 3.23477C78.4844 7.21574 78.4844 11.148 78.4844 15.1412C77.4252 15.1412 76.4269 15.1412 75.3434 15.1412C75.3434 11.1967 75.3434 7.25226 75.3434 3.25911C72.5555 3.25911 69.8407 3.25911 67.0284 3.25911C67.0284 2.26083 67.0163 1.32341 67.0406 0.385999C67.0406 0.300779 67.211 0.191208 67.3206 0.154685C67.4545 0.105988 67.6006 0.142514 67.7467 0.142514C73.8704 0.142514 80.0062 0.142514 86.1298 0.142514C86.3246 0.118166 86.5315 0.118164 86.7872 0.118164Z" fill="#151515"/>
<path id="Vector_4" d="M86.6914 15.202C86.8497 14.922 86.9349 14.7515 87.0445 14.5811C89.9298 9.97923 92.815 5.38955 95.6882 0.77552C95.9316 0.385945 96.1751 0.191158 96.6499 0.22768C97.5508 0.288551 98.6221 -0.0036286 99.3283 0.373772C100.01 0.751173 100.351 1.78598 100.826 2.5286C103.309 6.4974 105.793 10.454 108.288 14.4228C108.422 14.642 108.556 14.8611 108.751 15.1776C107.753 15.1776 106.876 15.202 105.988 15.1533C105.793 15.1411 105.574 14.8733 105.44 14.6663C103.017 10.9532 100.607 7.21568 98.196 3.50254C98.0621 3.28341 97.9039 3.07645 97.7091 2.79644C97.5143 3.07645 97.3804 3.25906 97.2586 3.46602C94.8481 7.19133 92.4255 10.9166 90.0271 14.642C89.7715 15.0437 89.4915 15.2263 89.0045 15.202C88.2741 15.1655 87.5436 15.202 86.6914 15.202Z" fill="#151515"/>
<path id="Vector_5" d="M61.5516 14.8851C60.5533 14.8851 59.6281 14.8972 58.7029 14.8729C58.6176 14.8729 58.4837 14.7146 58.4472 14.6051C58.3985 14.459 58.435 14.2885 58.435 14.1181C58.435 9.71101 58.435 5.31612 58.435 0.909046C58.435 0.105547 58.435 0.10555 59.275 0.10555C59.8229 0.10555 60.3707 0.142068 60.9186 0.093371C61.4299 0.0568483 61.576 0.239465 61.576 0.750782C61.5516 3.40476 61.5638 6.07092 61.5638 8.7249C61.5638 10.5145 61.5638 12.292 61.5638 14.0816C61.5516 14.325 61.5516 14.5685 61.5516 14.8851Z" fill="#151515"/>
<path id="Vector_6" d="M71.6196 22.8828C71.6196 24.8185 71.6196 26.7664 71.6196 28.7386C71.3517 28.7386 71.1448 28.7386 70.877 28.7386C70.877 26.4621 70.877 24.1855 70.877 21.8115C71.2665 21.8115 71.6804 21.775 72.0578 21.8358C72.2161 21.8602 72.4109 22.0793 72.4839 22.2498C73.1779 23.735 73.8596 25.2325 74.5414 26.7177C74.6388 26.9125 74.7362 27.1195 74.8944 27.436C75.0405 27.1682 75.1501 26.9977 75.2231 26.8151C75.8562 25.4151 76.5258 24.0272 77.098 22.5906C77.3536 21.9576 77.6823 21.6776 78.3519 21.7993C78.5102 21.8237 78.6685 21.8237 78.8876 21.8237C78.8876 24.1124 78.8876 26.4012 78.8876 28.7265C78.6198 28.7265 78.3519 28.7265 78.0232 28.7265C78.0232 26.7542 78.0232 24.8185 78.0232 22.8828C77.9745 22.8707 77.9258 22.8463 77.8893 22.8341C77.7919 23.0046 77.6823 23.175 77.6093 23.3576C76.8667 25.0011 76.1362 26.6447 75.3814 28.276C75.284 28.483 75.0284 28.7508 74.8701 28.7386C74.6631 28.7143 74.3953 28.483 74.2979 28.276C73.5309 26.6447 72.7883 25.0011 72.0457 23.3576C71.9605 23.175 71.8631 23.0046 71.7778 22.8341C71.7291 22.8585 71.6683 22.8707 71.6196 22.8828Z" fill="#151515"/>
<path id="Vector_7" d="M104.223 27.5588C104.223 27.011 104.223 26.6579 104.223 26.3049C104.223 24.9901 104.211 23.6752 104.235 22.3483C104.235 22.1656 104.405 21.8735 104.539 21.8369C104.965 21.7395 104.892 22.1169 104.892 22.3604C104.892 24.3083 104.904 26.2562 104.892 28.2041C104.892 28.3988 104.734 28.7519 104.698 28.7519C104.405 28.7032 104.004 28.6667 103.87 28.4719C103.054 27.3153 102.287 26.1223 101.508 24.9292C101.045 24.2231 100.57 23.517 100.023 22.6891C99.9739 22.957 99.9252 23.0665 99.9252 23.1883C99.9374 24.844 99.9496 26.5118 99.9617 28.1675C99.9617 28.4232 100.059 28.8249 99.5965 28.7519C99.4626 28.7276 99.28 28.3867 99.28 28.1919C99.2556 26.3049 99.2556 24.4179 99.28 22.5309C99.28 22.2874 99.4139 21.8735 99.5356 21.8491C99.9252 21.7882 100.339 21.6787 100.656 22.1656C101.642 23.7239 102.677 25.2579 103.687 26.7919C103.821 27.011 103.967 27.2058 104.223 27.5588Z" fill="#151515"/>
<path id="Vector_8" d="M67.0076 25.3424C66.752 26.085 66.5815 26.9615 66.1554 27.6798C65.145 29.3964 62.7466 29.3477 61.7605 27.6189C60.957 26.2067 60.9692 24.6971 61.6388 23.2362C62.0892 22.2501 62.9049 21.6657 64.0493 21.6779C65.1815 21.6901 65.985 22.2623 66.4233 23.2727C66.6789 23.8936 66.7885 24.551 67.0076 25.3424ZM66.1798 25.2084C65.9363 24.4902 65.8024 23.6988 65.425 23.078C64.7797 22.031 63.3188 22.0797 62.6006 23.0901C61.8092 24.1858 61.7849 26.3528 62.5519 27.485C63.3188 28.6294 64.8528 28.6172 65.498 27.412C65.8267 26.7546 65.9363 25.9876 66.1798 25.2084Z" fill="#151515"/>
<path id="Vector_9" d="M93.0094 22.7485C92.8633 23.0285 92.7538 23.2112 92.6685 23.4059C91.9259 24.9764 91.1711 26.5469 90.4772 28.1417C90.2215 28.7139 89.905 28.9209 89.2598 28.7261C89.3085 28.5922 89.3328 28.4339 89.3937 28.3122C90.3311 26.3156 91.2807 24.3312 92.2059 22.3224C92.3885 21.9207 92.6199 21.8233 93.0338 21.8111C93.4599 21.7989 93.6303 21.9816 93.8008 22.3346C94.7138 24.319 95.6634 26.2912 96.5886 28.2635C96.6495 28.4095 96.6982 28.5556 96.7591 28.7261C96.1625 28.9087 95.8095 28.787 95.5538 28.1904C94.8599 26.5956 94.0929 25.0251 93.3625 23.4546C93.2651 23.2477 93.1555 23.0529 93.0094 22.7485Z" fill="#151515"/>
<path id="Vector_10" d="M83.0625 21.7744C84.1338 21.8231 85.1686 21.8109 86.1791 21.9448C87.1774 22.0788 87.7739 23.004 87.7009 24.0997C87.64 25.0249 86.873 25.8163 85.9356 25.8771C85.4121 25.9137 84.8765 25.9136 84.353 25.8893C83.9269 25.865 83.793 26.0476 83.8051 26.4615C83.8295 27.2041 83.8173 27.9467 83.8173 28.7381C83.5495 28.7381 83.3425 28.7381 83.0747 28.7381C83.0625 26.4615 83.0625 24.1849 83.0625 21.7744ZM83.8051 23.8562C83.8051 24.1606 83.8295 24.4649 83.8051 24.7693C83.7686 25.171 83.9512 25.3171 84.3286 25.2928C84.7912 25.2684 85.266 25.3049 85.7165 25.2441C86.593 25.1223 87.08 24.3675 86.873 23.5275C86.7026 22.797 86.1913 22.4683 85.2052 22.4683C83.8051 22.4683 83.8051 22.4683 83.8051 23.8562Z" fill="#151515"/>
<path id="Vector_11" d="M58.0573 23.8832C57.8504 23.9075 57.6312 23.9441 57.4121 23.9684C57.2782 23.7006 57.1808 23.4571 57.0591 23.2258C56.4016 22.0936 54.9529 22.0205 54.1859 23.0919C53.419 24.1632 53.419 26.4154 54.1738 27.4868C54.5633 28.0468 55.099 28.3268 55.7929 28.2416C56.5477 28.1563 56.9982 27.6815 57.2295 26.9998C57.3878 26.5128 57.6312 26.4398 58.033 26.6954C57.9112 27.7546 57.2538 28.5459 56.2677 28.8137C55.2086 29.0938 54.2103 28.765 53.5651 27.9129C52.6155 26.6589 52.4937 24.3702 53.2972 23.0066C53.8938 22.0084 54.9894 21.497 56.0851 21.7162C57.1808 21.9353 57.8382 22.6414 58.0573 23.8832Z" fill="#151515"/>
<path id="Vector_12" d="M110.808 25.1108C111.405 24.0882 111.953 23.1873 112.464 22.2499C112.659 21.909 112.866 21.7021 113.353 21.8847C113.255 22.0795 113.158 22.2621 113.06 22.4447C112.89 22.749 112.744 23.0534 112.537 23.3334C111.453 24.8552 110.772 26.4987 111.076 28.4222C111.088 28.5196 111.064 28.617 111.039 28.7509C110.808 28.7509 110.589 28.7509 110.285 28.7509C110.285 27.9718 110.309 27.1805 110.272 26.4013C110.248 26.0361 110.151 25.6465 109.98 25.3178C109.372 24.1978 108.726 23.1021 108.093 21.9942C108.081 21.9699 108.093 21.9212 108.093 21.8603C108.617 21.7021 108.97 21.836 109.238 22.3595C109.7 23.2604 110.236 24.1247 110.808 25.1108Z" fill="#151515"/>
<path id="Vector_13" d="M66.1772 25.2095C65.9459 26.0008 65.8363 26.7556 65.4954 27.4008C64.8502 28.6182 63.3284 28.6182 62.5493 27.4739C61.7945 26.3538 61.8188 24.1747 62.598 23.079C63.3162 22.0807 64.7771 22.0198 65.4224 23.0668C65.7998 23.6999 65.9337 24.4912 66.1772 25.2095Z" fill="white"/>
<path id="Vector_14" d="M83.8056 23.8556C83.8056 22.4678 83.8056 22.4678 85.2056 22.4678C86.1918 22.4678 86.7031 22.7965 86.8735 23.5269C87.0805 24.3669 86.5935 25.1218 85.717 25.2435C85.2665 25.3044 84.7917 25.2678 84.3291 25.2922C83.9395 25.3165 83.7691 25.1704 83.8056 24.7687C83.83 24.4643 83.8056 24.16 83.8056 23.8556Z" fill="white"/>
</g>
<g id="Group_4">
<path id="Vector_15" d="M14.1582 13.5956C14.1582 9.17631 14.1582 4.85446 14.1582 0.520436C14.1826 0.508262 14.1947 0.508268 14.2191 0.496094C15.9965 3.52748 17.7861 6.55886 19.5879 9.62676C17.7861 10.9416 15.9965 12.2564 14.1582 13.5956Z" fill="#151515"/>
<path id="Vector_16" d="M0 14.9587C0.876544 14.423 1.76526 13.8752 2.64181 13.3395C4.55316 12.1586 6.47669 10.9899 8.38804 9.80896C8.53413 9.72374 8.6437 9.67504 8.80197 9.79678C10.4942 11.0386 12.1864 12.2803 13.8786 13.5221C13.9151 13.5464 13.9395 13.583 14.0125 13.6438C9.31328 14.1065 4.66273 14.5691 0.012175 15.0195C0.012175 14.9952 0.0121742 14.9708 0 14.9587Z" fill="#151515"/>
<path id="Vector_17" d="M12.6737 16.4443C13.1363 20.7905 13.599 25.0759 14.0738 29.4342C14.0007 29.3247 13.952 29.2638 13.9155 29.2029C12.2476 26.3663 10.5676 23.5419 8.88754 20.7053C8.7658 20.4984 8.79015 20.401 8.94841 20.2427C10.1171 19.0618 11.2737 17.8687 12.4302 16.6756C12.5033 16.6148 12.5763 16.5417 12.6737 16.4443Z" fill="#151515"/>
<path id="Vector_18" d="M19.5041 20.4378C18.2014 19.1108 16.9231 17.796 15.584 16.4203C19.8571 15.9698 24.0572 15.5437 28.2452 15.1055C28.2574 15.1176 28.2574 15.1298 28.2695 15.142C25.3477 16.8951 22.4381 18.6603 19.5041 20.4378Z" fill="#151515"/>
<path id="Vector_19" d="M14.1582 13.5956C14.1582 9.17631 14.1582 4.85446 14.1582 0.520436C14.1826 0.508262 14.1947 0.508268 14.2191 0.496094C15.9965 3.52748 17.7861 6.55886 19.5879 9.62676C17.7861 10.9416 15.9965 12.2564 14.1582 13.5956Z" fill="#151515"/>
<path id="Vector_20" d="M14.1582 13.5956C14.1582 9.17631 14.1582 4.85446 14.1582 0.520436C14.1339 0.508262 14.1217 0.508268 14.0974 0.496094C12.3199 3.52748 10.5303 6.55886 8.72852 9.62676C10.5303 10.9416 12.3199 12.2564 14.1582 13.5956Z" fill="#646464"/>
<path id="Vector_21" d="M0 14.9587C0.876544 14.423 1.76526 13.8752 2.64181 13.3395C4.55316 12.1586 6.47669 10.9899 8.38804 9.80896C8.53413 9.72374 8.6437 9.67504 8.80197 9.79678C10.4942 11.0386 12.1864 12.2803 13.8786 13.5221C13.9151 13.5464 13.9395 13.583 14.0125 13.6438C9.31328 14.1065 4.66273 14.5691 0.012175 15.0195C0.012175 14.9952 0.0121742 14.9708 0 14.9587Z" fill="#151515"/>
<path id="Vector_22" d="M28.2567 14.9967C27.3801 14.4611 26.4914 13.9132 25.6149 13.3776C23.7035 12.1967 21.78 11.0279 19.8686 9.84705C19.7225 9.76183 19.613 9.71313 19.4547 9.83487C17.7625 11.0766 16.0703 12.3184 14.3781 13.5602C14.3415 13.5845 14.3172 13.6211 14.2441 13.6819C18.9434 14.1446 23.5939 14.6072 28.2445 15.0576C28.2445 15.0333 28.2567 15.0089 28.2567 14.9967Z" fill="#646464"/>
<path id="Vector_23" d="M12.6737 16.4443C13.1363 20.7905 13.599 25.0759 14.0738 29.4342C14.0007 29.3247 13.952 29.2638 13.9155 29.2029C12.2476 26.3663 10.5676 23.5419 8.88754 20.7053C8.7658 20.4984 8.79015 20.401 8.94841 20.2427C10.1171 19.0618 11.2737 17.8687 12.4302 16.6756C12.5033 16.6148 12.5763 16.5417 12.6737 16.4443Z" fill="#151515"/>
<path id="Vector_24" d="M19.5041 20.4378C18.2014 19.1108 16.9231 17.796 15.584 16.4203C19.8571 15.9698 24.0572 15.5437 28.2452 15.1055C28.2574 15.1176 28.2574 15.1298 28.2695 15.142C25.3477 16.8951 22.4381 18.6603 19.5041 20.4378Z" fill="#151515"/>
<path id="Vector_25" d="M8.76544 20.4515C10.0681 19.1245 11.3464 17.8096 12.6855 16.434C8.41239 15.9835 4.21228 15.5574 0.0243481 15.1191C0.0121739 15.1313 0.0121742 15.1435 0 15.1557C2.90964 16.9088 5.81928 18.674 8.76544 20.4515Z" fill="#646464"/>
<path id="Vector_26" d="M15.5348 16.4443C15.0722 20.7905 14.6096 25.0759 14.1348 29.4342C14.2078 29.3247 14.2565 29.2638 14.293 29.2029C15.9609 26.3663 17.6409 23.5419 19.321 20.7053C19.4427 20.4984 19.4184 20.401 19.2601 20.2427C18.0914 19.0618 16.9348 17.8687 15.7783 16.6756C15.7052 16.6148 15.6322 16.5417 15.5348 16.4443Z" fill="#646464"/>
</g>
</g>
</g>
</svg>
