<svg width="137" height="27" viewBox="0 0 137 27" fill="none" xmlns="http://www.w3.org/2000/svg">
<g id="Group 424">
<g id="unthink">
<path d="M40.6055 24.1979C39.5529 24.1979 38.6694 24.0287 37.9552 23.6904C37.2409 23.352 36.6582 22.9103 36.2071 22.3652C35.7654 21.8107 35.4271 21.2092 35.1921 20.5608C34.9572 19.9123 34.7974 19.2779 34.7128 18.6576C34.6282 18.0374 34.5859 17.4923 34.5859 17.0223V8.56399H37.5746V16.0496C37.5746 16.6417 37.6215 17.2526 37.7155 17.8823C37.8189 18.5026 38.0069 19.0805 38.2794 19.6162C38.5614 20.1519 38.9514 20.5843 39.4495 20.9132C39.957 21.2421 40.6149 21.4066 41.4231 21.4066C41.9494 21.4066 42.4475 21.322 42.9174 21.1528C43.3873 20.9743 43.7961 20.6923 44.1439 20.307C44.501 19.9217 44.7783 19.4142 44.9756 18.7845C45.1824 18.1548 45.2858 17.3889 45.2858 16.4867L47.1184 17.1774C47.1184 18.559 46.86 19.7807 46.3431 20.8427C45.8262 21.8953 45.0837 22.7176 44.1157 23.3097C43.1477 23.9018 41.9776 24.1979 40.6055 24.1979ZM45.6382 23.789V19.3907H45.2858V8.56399H48.2603V23.789H45.6382Z" fill="#151515"/>
<path d="M62.8999 23.789V16.3034C62.8999 15.7113 62.8482 15.1051 62.7448 14.4848C62.6508 13.8552 62.4628 13.2725 62.1809 12.7368C61.9083 12.2011 61.5183 11.7688 61.0108 11.4398C60.5127 11.1109 59.8595 10.9464 59.0513 10.9464C58.525 10.9464 58.0269 11.0357 57.557 11.2143C57.0871 11.3834 56.6736 11.6607 56.3164 12.046C55.9687 12.4313 55.6915 12.9388 55.4847 13.5685C55.2873 14.1982 55.1886 14.9641 55.1886 15.8664L53.356 15.1756C53.356 13.7941 53.6145 12.577 54.1314 11.5244C54.6483 10.4624 55.3907 9.63538 56.3587 9.0433C57.3267 8.45121 58.4968 8.15517 59.8689 8.15517C60.9215 8.15517 61.805 8.32434 62.5192 8.66267C63.2335 9.00101 63.8115 9.44742 64.2532 10.0019C64.7043 10.547 65.0473 11.1438 65.2823 11.7923C65.5172 12.4407 65.677 13.0751 65.7616 13.6954C65.8462 14.3157 65.8885 14.8608 65.8885 15.3307V23.789H62.8999ZM52.2 23.789V8.56399H54.8362V12.9623H55.1886V23.789H52.2Z" fill="#151515"/>
<path d="M78.2725 23.789C77.3139 23.977 76.374 24.0569 75.453 24.0287C74.532 24.0005 73.7097 23.8219 72.986 23.493C72.2623 23.1641 71.7172 22.6472 71.3507 21.9423C71.0218 21.3126 70.8432 20.6735 70.815 20.0251C70.7962 19.3672 70.7868 18.6247 70.7868 17.7977V4.33481H73.7473V17.6567C73.7473 18.2676 73.752 18.7986 73.7614 19.2497C73.7801 19.7008 73.8788 20.0815 74.0574 20.3916C74.3957 20.9743 74.9314 21.3079 75.6645 21.3925C76.4069 21.4677 77.2763 21.4348 78.2725 21.2938V23.789ZM67.8687 10.9323V8.56399H78.2725V10.9323H67.8687Z" fill="#151515"/>
<path d="M92.1682 23.789V16.3034C92.1682 15.7113 92.1165 15.1051 92.0131 14.4848C91.9191 13.8552 91.7312 13.2725 91.4492 12.7368C91.1767 12.2011 90.7867 11.7688 90.2792 11.4398C89.7811 11.1109 89.1279 10.9464 88.3196 10.9464C87.7933 10.9464 87.2952 11.0357 86.8253 11.2143C86.3554 11.3834 85.9419 11.6607 85.5848 12.046C85.237 12.4313 84.9598 12.9388 84.753 13.5685C84.5557 14.1982 84.457 14.9641 84.457 15.8664L82.6243 15.1756C82.6243 13.7941 82.8828 12.577 83.3997 11.5244C83.9166 10.4624 84.659 9.63538 85.6271 9.0433C86.5951 8.45121 87.7651 8.15517 89.1373 8.15517C90.1899 8.15517 91.0733 8.32434 91.7876 8.66267C92.5018 9.00101 93.0798 9.44742 93.5215 10.0019C93.9726 10.547 94.3157 11.1438 94.5506 11.7923C94.7856 12.4407 94.9454 13.0751 95.0299 13.6954C95.1145 14.3157 95.1568 14.8608 95.1568 15.3307V23.789H92.1682ZM81.4684 23.789V3.48898H84.1046V14.4425H84.457V23.789H81.4684Z" fill="#151515"/>
<path d="M99.1107 6.06877V3.20703H102.057V6.06877H99.1107ZM99.1107 23.789V8.56399H102.057V23.789H99.1107Z" fill="#151515"/>
<path d="M116.976 23.789V16.3034C116.976 15.7113 116.924 15.1051 116.821 14.4848C116.727 13.8552 116.539 13.2725 116.257 12.7368C115.985 12.2011 115.595 11.7688 115.087 11.4398C114.589 11.1109 113.936 10.9464 113.128 10.9464C112.601 10.9464 112.103 11.0357 111.633 11.2143C111.163 11.3834 110.75 11.6607 110.393 12.046C110.045 12.4313 109.768 12.9388 109.561 13.5685C109.364 14.1982 109.265 14.9641 109.265 15.8664L107.432 15.1756C107.432 13.7941 107.691 12.577 108.208 11.5244C108.724 10.4624 109.467 9.63538 110.435 9.0433C111.403 8.45121 112.573 8.15517 113.945 8.15517C114.998 8.15517 115.881 8.32434 116.595 8.66267C117.31 9.00101 117.888 9.44742 118.329 10.0019C118.781 10.547 119.124 11.1438 119.359 11.7923C119.593 12.4407 119.753 13.0751 119.838 13.6954C119.922 14.3157 119.965 14.8608 119.965 15.3307V23.789H116.976ZM106.276 23.789V8.56399H108.912V12.9623H109.265V23.789H106.276Z" fill="#151515"/>
<path d="M123.622 23.789L123.637 3.48898H126.625V15.8946L132.602 8.56399H136.352L130.037 16.1765L137.001 23.789H132.997L126.625 16.4585V23.789H123.622Z" fill="#151515"/>
</g>
<g id="Group 2">
<g id="Group">
<path id="Vector" d="M13.2162 26.4324C20.5153 26.4324 26.4324 20.5153 26.4324 13.2162C26.4324 5.91709 20.5153 0 13.2162 0C5.91709 0 0 5.91709 0 13.2162C0 20.5153 5.91709 26.4324 13.2162 26.4324Z" fill="#151515"/>
</g>
<g id="Group_2">
<path id="Vector_2" d="M19.7401 8.06545L16.399 11.4171H18.4925V14.589C18.4925 17.4965 16.1347 19.8543 13.2272 19.8543C10.3196 19.8543 7.96183 17.4965 7.96183 14.589V0.928711C7.16886 1.27762 6.40761 1.70054 5.69922 2.18689V14.589C5.69922 18.7441 9.07199 22.1169 13.2272 22.1169C17.3823 22.1169 20.7551 18.7441 20.7551 14.589V11.4171H23.1023L19.7401 8.06545Z" fill="white"/>
</g>
</g>
</g>
</svg>
