<svg width="65" height="28" viewBox="0 0 65 28" fill="none" xmlns="http://www.w3.org/2000/svg">
<g id="Group">
<g id="Group_2">
<path id="Vector" d="M0.00195312 7.74609H8.54237V27.7135C8.54237 27.7135 0.0592748 28.5742 0.0592748 21.2298L0.00195312 7.74609Z" fill="#151515"/>
<path id="Vector_2" d="M8.65609 6.59843V0H0.00104C0.00104 0 -0.285547 6.71318 8.65609 6.59843Z" fill="#151515"/>
<path id="Vector_3" d="M55.8279 10.2129H43.963H43.1032C41.2691 10.2129 39.7788 11.8195 39.9507 13.6555C40.1227 15.3195 41.5556 16.5244 43.2179 16.5244H48.4338C48.5485 16.5244 48.6631 16.5244 48.7777 16.5244H51.9876C53.1912 16.5244 54.2803 17.4425 54.3949 18.6474C54.4522 19.9671 53.4205 20.9999 52.1595 20.9999H40.18C38.2885 20.9999 36.6836 22.5491 36.6836 24.4999C36.6836 26.3934 38.2312 27.9999 40.18 27.9999H55.8279C60.7572 27.9999 64.7122 24.0409 64.7122 19.1064C64.7122 14.1719 60.6999 10.2129 55.8279 10.2129Z" fill="#151515"/>
<path id="Vector_4" d="M57.9498 7.11528L63.395 0.344727H35.4237C35.3664 0.344727 35.3091 0.344727 35.3091 0.344727C35.0798 0.344727 34.9079 0.344721 34.6786 0.402099H34.6213C34.2774 0.459477 33.9334 0.516859 33.5895 0.631615C33.4749 0.688992 33.3029 0.688991 33.1883 0.746368C30.2078 1.72179 28.0297 4.53329 28.0297 7.91857C28.0297 9.75465 28.7175 11.476 29.8065 12.7957C29.8639 13.1399 29.9212 13.5416 29.9212 13.8858V14.2301C29.9212 17.9597 26.8833 21.0581 23.1576 21.0581L10.3184 21.0007L10.3757 27.8286H24.4186C32.0993 27.8286 38.3469 21.5744 38.3469 13.8858C38.3469 13.3694 38.2896 12.853 38.2323 12.3366C38.003 10.4432 37.4299 8.66447 36.5701 7.11528H42.9324H57.9498Z" fill="#151515"/>
<path id="Vector_5" d="M29.8632 1.14755C28.2009 0.401643 26.3094 0 24.4179 0H10.375V6.65581L23.157 6.71318C24.3606 6.71318 25.4497 7.05744 26.4241 7.6886C26.4814 4.93447 27.7997 2.58199 29.8632 1.14755Z" fill="#151515"/>
</g>
</g>
</svg>
