<svg width="156" height="21" viewBox="0 0 156 21" fill="none" xmlns="http://www.w3.org/2000/svg">
<g id="Group">
<g id="Group_2">
<g id="Group_3">
<path id="Vector" fill-rule="evenodd" clip-rule="evenodd" d="M145.797 5.08449H139.415C138.323 5.16846 138.029 5.42037 138.029 6.72192V10.2907H145.797V5.08449ZM149.197 2.1875V17.848H145.797V13.3556H138.029V17.848H134.629V5.58832C134.629 3.40508 135.51 2.22948 138.029 2.22948H149.197V2.1875ZM131.228 5.58832V14.0694C131.228 16.7564 129.716 17.848 127.827 17.848H117.121V2.1875H127.827C130.724 2.1875 131.228 4.03486 131.228 5.58832ZM127.785 6.51199C127.785 5.67229 127.281 5.08449 126.357 5.08449H120.521V14.8671H126.357C127.701 14.7831 127.785 13.9854 127.785 13.3556V6.51199ZM47.8027 2.1875H51.2035V8.35935H58.8029V2.1875H62.2037V17.848H58.8029V11.4663H51.2035V17.848H47.8027V2.1875ZM68.0397 2.1875L72.3222 8.56928L76.5207 2.1875H80.6353L74.0016 12.18V17.848H70.6008V12.18L63.9251 2.1875H68.0397ZM99.7387 2.1875H110.697C112.25 2.1875 113.762 2.39743 113.72 5.54633V17.848H110.319V6.67994C110.319 5.3364 110.151 5.04251 109.101 5.04251H103.139V17.848H99.7387V2.1875ZM155.999 2.1875V17.848H152.598V2.1875H155.999ZM82.3567 17.848H93.3149C95.4981 17.848 96.3798 17.2183 96.3378 14.0694V2.1875H92.937V13.3556C92.937 14.6991 92.7691 14.8671 91.7194 14.8671H85.7575V2.1875H82.3567V17.848Z" fill="#151515"/>
<path id="Vector_2" fill-rule="evenodd" clip-rule="evenodd" d="M23.83 12.3465C24.1239 13.8999 23.3262 15.2015 22.6544 16.4191C21.8987 17.5946 20.6811 18.5603 19.1696 18.4344C15.8528 18.3924 12.5779 17.8885 9.55498 16.9649C9.42903 16.9229 9.26109 16.8389 9.2191 16.7129C9.17712 16.545 9.26109 16.3771 9.38704 16.2511C12.1581 14.0259 15.4329 12.9763 18.6658 11.8846C19.8834 11.5487 21.1849 11.1709 22.5285 11.3388C23.0323 11.4228 23.6201 11.8007 23.83 12.3465ZM35.2081 5.71278C36.7615 6.97234 38.147 8.73573 37.6852 10.835C36.9295 13.9419 33.5286 15.5793 30.8416 16.629C29.3721 17.1328 27.9026 17.6366 26.3072 17.7626C26.2232 17.7626 26.0552 17.7626 26.0133 17.6366L26.0552 17.4687C28.3225 14.9076 30.0439 12.0526 31.5553 9.11359C32.2691 7.81204 32.8989 6.46851 33.4867 5.12498C33.5706 5.04101 33.6546 4.95704 33.7806 4.95704C34.3264 4.95704 34.7462 5.41888 35.2081 5.71278ZM13.3757 2.39593L13.3337 2.56387C10.0588 6.30057 7.87557 10.6251 5.81829 14.9496C5.39843 15.3274 5.02056 14.8236 4.68468 14.6557C2.87931 13.4381 1.19989 11.5068 1.70372 9.23955C2.45945 6.25859 5.56637 4.62116 8.12748 3.57152C9.63896 2.98373 11.2344 2.52189 12.9138 2.26997C13.0818 2.26997 13.2917 2.26997 13.3757 2.39593ZM29.708 3.02571C29.8759 3.10968 30.1278 3.15167 30.2118 3.36159C30.2958 3.57152 30.1278 3.69748 30.0019 3.86542C27.3988 5.88072 24.4598 7.01432 21.4368 7.97999C19.8834 8.35786 18.3299 9.02962 16.6505 8.65175C16.2307 8.56778 15.8948 8.27389 15.6429 7.89602C15.223 6.72043 15.8108 5.50285 16.2726 4.45321C16.9444 3.15167 18.12 1.64019 19.7154 1.64019C23.2422 1.59821 26.5591 2.14402 29.708 3.02571ZM34.0325 3.10968C36.6775 4.57917 39.7005 7.09829 39.3646 10.4991C38.9867 13.648 36.0478 15.8313 33.4447 17.1748C25.8033 20.8275 15.0131 20.9535 7.11983 17.7626C4.43277 16.671 1.4518 14.7396 0.318199 11.8846C-0.563494 9.53345 0.486143 7.05631 2.24953 5.41888C5.94424 2.06005 10.6466 0.926441 15.4749 0.254674C20.7231 -0.375107 26.2652 0.170704 30.9256 1.80813C31.9752 2.14402 33.0248 2.60586 34.0325 3.10968Z" fill="#151515"/>
</g>
</g>
</g>
</svg>
