<svg width="15" height="15" viewBox="0 0 15 15" fill="none" xmlns="http://www.w3.org/2000/svg">
<g id="pencil (1) 2" clip-path="url(#clip0_2902_174)">
<path id="Vector" d="M0.7325 11.9492C0.263627 12.418 0.000141594 13.0538 0 13.7167L0 14.9999H1.28313C1.94611 14.9997 2.58189 14.7362 3.05063 14.2674L11.39 5.92799L9.07188 3.60986L0.7325 11.9492Z" fill="white"/>
<path id="Vector_2" d="M14.4661 0.534294C14.3139 0.381941 14.1331 0.261079 13.9342 0.178617C13.7353 0.0961551 13.522 0.0537109 13.3067 0.0537109C13.0913 0.0537109 12.8781 0.0961551 12.6792 0.178617C12.4802 0.261079 12.2995 0.381941 12.1473 0.534294L9.95605 2.72617L12.2742 5.04429L14.4661 2.85304C14.6184 2.70085 14.7393 2.52012 14.8217 2.32119C14.9042 2.12225 14.9466 1.90902 14.9466 1.69367C14.9466 1.47832 14.9042 1.26509 14.8217 1.06615C14.7393 0.867218 14.6184 0.686488 14.4661 0.534294Z" fill="white"/>
</g>
<defs>
<clipPath id="clip0_2902_174">
<rect width="15" height="15" fill="white"/>
</clipPath>
</defs>
</svg>
