<svg width="39" height="39" viewBox="0 0 39 39" fill="none" xmlns="http://www.w3.org/2000/svg">
<g id="real-estate 1">
<g id="Layer 10">
<path id="Vector" d="M36.1359 34.2223C36.7722 34.0832 37.3417 33.7304 37.7497 33.2226C38.1577 32.7149 38.3796 32.0828 38.3784 31.4314C38.3771 30.7446 38.1258 30.0818 37.6716 29.5667C37.7605 29.3205 37.8059 29.0607 37.8056 28.7989C37.8056 28.1928 37.5649 27.6116 37.1363 27.1831C36.7078 26.7545 36.1265 26.5138 35.5205 26.5138C34.9144 26.5138 34.3332 26.7545 33.9046 27.1831C33.4761 27.6116 33.2353 28.1928 33.2353 28.7989C33.2351 29.0607 33.2805 29.3205 33.3694 29.5667C32.9141 30.0812 32.6627 30.7444 32.6625 31.4314C32.6614 32.0828 32.8832 32.7149 33.2912 33.2226C33.6992 33.7304 34.2687 34.0832 34.905 34.2223V36.867H32.2847V11.6145L17.0625 5.38672V11.1148L2.98594 5.38672V36.8548H0.609375V38.0736H37.7812V36.8548H36.1359V34.2223ZM33.8934 31.4314C33.9005 31.1962 33.9586 30.9654 34.0638 30.7549C34.1691 30.5444 34.3189 30.3594 34.5028 30.2127L34.9294 29.8714L34.6369 29.4083C34.5353 29.2479 34.4787 29.0633 34.4728 28.8735C34.467 28.6838 34.5122 28.496 34.6037 28.3297C34.6953 28.1634 34.8297 28.0248 34.9931 27.9282C35.1565 27.8316 35.3428 27.7807 35.5327 27.7807C35.7225 27.7807 35.9088 27.8316 36.0722 27.9282C36.2356 28.0248 36.3701 28.1634 36.4616 28.3297C36.5531 28.496 36.5983 28.6838 36.5925 28.8735C36.5866 29.0633 36.53 29.2479 36.4284 29.4083L36.1359 29.8714L36.5503 30.2127C36.767 30.3872 36.9354 30.6142 37.0397 30.8722C37.144 31.1301 37.1807 31.4104 37.1463 31.6865C37.1119 31.9625 37.0075 32.2253 36.843 32.4497C36.6786 32.6741 36.4595 32.8528 36.2066 32.9688C35.9537 33.0848 35.6754 33.1343 35.398 33.1125C35.1207 33.0908 34.8535 32.9985 34.6217 32.8445C34.39 32.6905 34.2015 32.4799 34.074 32.2326C33.9466 31.9853 33.8844 31.7095 33.8934 31.4314ZM18.2812 7.20266L31.1025 12.4311V34.4905H18.2812V7.20266ZM17.0625 14.2714H15.1125V15.4902H17.0625V18.5127H15.1125V19.7314H17.0625V22.7539H15.1125V23.9727H17.0625V27.507H15.1125V28.7258H17.0625V32.0773H11.2734V31.1633H13.0894V29.9445H11.2734V26.7148H13.0894V25.4961H11.2734V22.2664H13.0894V21.0477H11.2734V17.8302H13.0894V16.6114H11.2734V13.4061H13.0894V12.1873H11.2734V10.0911L17.0625 12.4433V14.2714ZM8.775 33.2839V36.8548H7.42219V33.2961L8.775 33.2839ZM9.99375 33.2839H11.2734V36.8548H9.95719L9.99375 33.2839ZM12.5287 33.2839H13.845V36.8548H12.4922L12.5287 33.2839ZM10.0912 9.57922V32.0773H4.20469V7.20266L10.0912 9.57922ZM4.20469 33.2961H6.20344V36.867H4.20469V33.2961ZM15.0272 36.867V33.2961H17.0625V36.867H15.0272ZM18.2447 36.867V35.7214H31.0659V36.867H18.2447Z" fill="#222222"/>
<path id="Vector_2" d="M5.44775 15.7217H7.61713V16.9404H5.44775V15.7217Z" fill="#222222"/>
<path id="Vector_3" d="M5.44775 18.5127H7.61713V19.7314H5.44775V18.5127Z" fill="#222222"/>
<path id="Vector_4" d="M5.44775 21.3037H7.61713V22.5225H5.44775V21.3037Z" fill="#222222"/>
<path id="Vector_5" d="M5.44775 24.0947H7.61713V25.3135H5.44775V24.0947Z" fill="#222222"/>
<path id="Vector_6" d="M5.44775 26.8857H7.61713V28.1045H5.44775V26.8857Z" fill="#222222"/>
<path id="Vector_7" d="M26.666 15.7217H28.8354V16.9404H26.666V15.7217Z" fill="#222222"/>
<path id="Vector_8" d="M26.666 18.5127H28.8354V19.7314H26.666V18.5127Z" fill="#222222"/>
<path id="Vector_9" d="M26.666 21.3037H28.8354V22.5225H26.666V21.3037Z" fill="#222222"/>
<path id="Vector_10" d="M26.666 24.0947H28.8354V25.3135H26.666V24.0947Z" fill="#222222"/>
<path id="Vector_11" d="M26.666 26.8857H28.8354V28.1045H26.666V26.8857Z" fill="#222222"/>
<path id="Vector_12" d="M26.666 29.6768H28.8354V30.8955H26.666V29.6768Z" fill="#222222"/>
<path id="Vector_13" d="M20.4751 15.7217H22.6445V16.9404H20.4751V15.7217Z" fill="#222222"/>
<path id="Vector_14" d="M20.4751 18.5127H22.6445V19.7314H20.4751V18.5127Z" fill="#222222"/>
<path id="Vector_15" d="M20.4751 21.3037H22.6445V22.5225H20.4751V21.3037Z" fill="#222222"/>
<path id="Vector_16" d="M20.4751 24.0947H22.6445V25.3135H20.4751V24.0947Z" fill="#222222"/>
<path id="Vector_17" d="M20.4751 26.8857H22.6445V28.1045H20.4751V26.8857Z" fill="#222222"/>
<path id="Vector_18" d="M20.4751 29.6768H22.6445V30.8955H20.4751V29.6768Z" fill="#222222"/>
<path id="Vector_19" d="M5.44775 29.6768H7.61713V30.8955H5.44775V29.6768Z" fill="#222222"/>
</g>
</g>
</svg>
