<svg width="39" height="39" viewBox="0 0 39 39" fill="none" xmlns="http://www.w3.org/2000/svg">
<g id="solidarity 2" clip-path="url(#clip0_2167_1140)">
<g id="Group">
<path id="Vector" d="M14.625 25.0922V19.1953C14.625 18.0192 13.6683 17.0625 12.4922 17.0625C12.1637 17.0625 11.856 17.1435 11.5781 17.2764V13.7109C11.5781 12.5348 10.6214 11.5781 9.44531 11.5781C9.11686 11.5781 8.80912 11.6592 8.53125 11.792V10.0547C8.53125 8.87859 7.57453 7.92188 6.39844 7.92188C5.4082 7.92188 4.58006 8.60437 4.3418 9.52087C3.9652 9.28322 3.52341 9.14062 3.04688 9.14062C1.70259 9.14062 0.609375 10.2338 0.609375 11.5781V21.9375C0.609375 22.0393 0.634969 22.1398 0.683719 22.2294L4.33997 28.9325C4.368 28.9831 4.40334 29.0306 4.44417 29.0715L9.21497 33.8422C9.555 34.1823 9.75 34.6533 9.75 35.1347V37.7812C9.75 38.1176 10.023 38.3906 10.3594 38.3906H17.6719C18.0082 38.3906 18.2812 38.1176 18.2812 37.7812V30.211C18.2812 29.4365 17.99 28.6979 17.4616 28.1318L14.625 25.0922ZM12.4922 18.2812C12.9961 18.2812 13.4062 18.6914 13.4062 19.1953V23.7863L11.5781 21.8278V19.1953C11.5781 18.6914 11.9882 18.2812 12.4922 18.2812ZM9.44531 12.7969C9.94927 12.7969 10.3594 13.207 10.3594 13.7109V19.1953V20.5219L9.94744 20.0807C9.60314 19.7121 9.11625 19.5 8.61108 19.5H8.53125V13.7109C8.53125 13.207 8.94136 12.7969 9.44531 12.7969ZM5.48438 10.0547C5.48438 9.55073 5.89448 9.14062 6.39844 9.14062C6.90239 9.14062 7.3125 9.55073 7.3125 10.0547V13.7109V19.9741C7.04194 20.2178 6.84023 20.5378 6.75309 20.904L5.48438 19.2892V11.5781V10.0547ZM17.0625 37.1719H10.9688V35.1347C10.9688 34.3212 10.6519 33.5558 10.0766 32.9806L5.36798 28.272L1.82812 21.7821V11.5781C1.82812 10.906 2.37473 10.3594 3.04688 10.3594C3.71902 10.3594 4.26562 10.906 4.26562 11.5781V19.5C4.26562 19.6365 4.31133 19.7687 4.39603 19.8766L11.0992 28.4078L12.0571 27.6553L7.92188 22.3915V21.3281C7.92188 20.9924 8.19548 20.7188 8.53125 20.7188H8.61108C8.77927 20.7188 8.94136 20.7894 9.05653 20.9119L16.5713 28.963C16.8876 29.303 17.0625 29.746 17.0625 30.211V37.1719Z" fill="black"/>
<path id="Vector_2" d="M35.9531 9.14062C35.4766 9.14062 35.0348 9.28322 34.6582 9.52087C34.4199 8.60437 33.5918 7.92188 32.6016 7.92188C31.4255 7.92188 30.4688 8.87859 30.4688 10.0547V11.792C30.1909 11.6592 29.8831 11.5781 29.5547 11.5781C28.3786 11.5781 27.4219 12.5348 27.4219 13.7109V17.2764C27.144 17.1435 26.8363 17.0625 26.5078 17.0625C25.3317 17.0625 24.375 18.0192 24.375 19.1953V25.0922L21.5384 28.1318C21.01 28.6979 20.7188 29.4365 20.7188 30.211V37.7812C20.7188 38.1176 20.9918 38.3906 21.3281 38.3906H28.6406C28.977 38.3906 29.25 38.1176 29.25 37.7812V35.1347C29.25 34.6533 29.445 34.1829 29.785 33.8422L34.5558 29.0715C34.5967 29.0306 34.632 28.9831 34.66 28.9325L38.3163 22.2294C38.365 22.1398 38.3906 22.0393 38.3906 21.9375V11.5781C38.3906 10.2338 37.2974 9.14062 35.9531 9.14062ZM31.6875 10.0547C31.6875 9.55073 32.0976 9.14062 32.6016 9.14062C33.1055 9.14062 33.5156 9.55073 33.5156 10.0547V11.5781V19.2892L32.2469 20.9034C32.1598 20.5372 31.9581 20.2178 31.6875 19.9735V13.7109V10.0547ZM28.6406 13.7109C28.6406 13.207 29.0507 12.7969 29.5547 12.7969C30.0586 12.7969 30.4688 13.207 30.4688 13.7109V19.5H30.3889C29.8837 19.5 29.3969 19.7121 29.0526 20.0807L28.6406 20.5225V19.1953V13.7109ZM25.5938 19.1953C25.5938 18.6914 26.0039 18.2812 26.5078 18.2812C27.0118 18.2812 27.4219 18.6914 27.4219 19.1953V21.8278L25.5938 23.7863V19.1953ZM37.1719 21.7821L33.632 28.2713L28.9234 32.98C28.3481 33.5558 28.0312 34.3206 28.0312 35.1347V37.1719H21.9375V30.211C21.9375 29.746 22.1124 29.303 22.4293 28.9636L29.9441 20.9125C30.0586 20.7894 30.2207 20.7188 30.3889 20.7188H30.4688C30.8045 20.7188 31.0781 20.9924 31.0781 21.3281V22.3915L26.9429 27.6547L27.9008 28.4072L34.604 19.876C34.6887 19.7687 34.7344 19.6365 34.7344 19.5V11.5781C34.7344 10.906 35.281 10.3594 35.9531 10.3594C36.6253 10.3594 37.1719 10.906 37.1719 11.5781V21.7821Z" fill="black"/>
<path id="Vector_3" d="M28.6296 5.62957C28.5272 3.98548 27.7028 2.50409 26.3688 1.56504C24.4219 0.195164 21.7918 0.314602 19.9728 1.8551L19.5 2.25607L19.0265 1.8551C17.2075 0.314602 14.578 0.195164 12.6305 1.56504C11.2966 2.50409 10.4721 3.98548 10.3697 5.62957C10.2667 7.27854 10.9029 8.85621 12.1156 9.95857L19.0899 16.3016C19.2062 16.407 19.3531 16.46 19.5 16.46C19.6468 16.46 19.7937 16.407 19.9101 16.3016L26.8844 9.95857C28.0964 8.85621 28.7326 7.27854 28.6296 5.62957ZM19.5 15.028L12.9358 9.05791C11.9986 8.2054 11.5068 6.9836 11.5866 5.70635C11.6658 4.43337 12.3026 3.28713 13.3325 2.56259C14.0266 2.07387 14.8334 1.83256 15.639 1.83256C16.5664 1.83256 17.4921 2.15248 18.2386 2.78562L19.1057 3.52052C19.333 3.71248 19.6663 3.71248 19.8936 3.52052L20.7614 2.78501C22.1562 1.60343 24.1745 1.51081 25.6674 2.56198C26.6973 3.28652 27.3341 4.43276 27.4133 5.70574C27.4931 6.9836 27.0014 8.2054 26.0642 9.0573L19.5 15.028Z" fill="black"/>
</g>
</g>
<defs>
<clipPath id="clip0_2167_1140">
<rect width="39" height="39" fill="white"/>
</clipPath>
</defs>
</svg>
