<svg width="39" height="39" viewBox="0 0 39 39" fill="none" xmlns="http://www.w3.org/2000/svg">
<g id="transaction 2">
<g id="Group">
<g id="Group_2">
<path id="Vector" d="M28.694 0H26.5917H12.4237H10.3062C8.54658 0 7.10693 1.43965 7.10693 3.19922V35.8008C7.10693 37.568 8.54658 39 10.3062 39H28.694C30.4612 39 31.8933 37.5604 31.8933 35.8008V3.19922C31.9009 1.43965 30.4612 0 28.694 0ZM12.9798 1.11211H26.0433V1.7291C26.0433 2.51367 25.4034 3.16113 24.6112 3.16113H14.4042C13.6196 3.16113 12.9722 2.52129 12.9722 1.7291V1.11211H12.9798ZM30.7888 35.8008C30.7888 36.951 29.8519 37.8955 28.694 37.8955H10.3062C9.15596 37.8955 8.21143 36.9586 8.21143 35.8008V3.19922C8.21143 2.04902 9.14834 1.10449 10.3062 1.10449H11.8677V1.72148C11.8677 3.12305 13.0103 4.25801 14.4042 4.25801H24.6036C26.0052 4.25801 27.1401 3.11543 27.1401 1.72148V1.10449H28.6864C29.8366 1.10449 30.7812 2.04141 30.7812 3.19922V35.8008H30.7888ZM23.1563 36.3873C23.1563 36.692 22.905 36.9434 22.6003 36.9434H16.3999C16.0952 36.9434 15.8438 36.692 15.8438 36.3873C15.8438 36.0826 16.0952 35.8312 16.3999 35.8312H22.6003C22.905 35.8312 23.1563 36.0826 23.1563 36.3873Z" fill="black"/>
<path id="Vector_2" d="M19.5003 13.1629C15.9888 13.1629 13.1323 16.0193 13.1323 19.5309C13.1323 23.0424 15.9888 25.8988 19.5003 25.8988C23.0118 25.8988 25.8682 23.0424 25.8682 19.5309C25.8682 16.0193 23.0118 13.1629 19.5003 13.1629ZM19.5003 24.7867C16.5981 24.7867 14.2444 22.4254 14.2444 19.5309C14.2444 16.6363 16.6057 14.275 19.5003 14.275C22.4024 14.275 24.7561 16.6363 24.7561 19.5309C24.7561 22.4254 22.4024 24.7867 19.5003 24.7867ZM21.6407 20.6582C21.6407 21.557 20.9399 22.2883 20.0563 22.3416V22.6996C20.0563 23.0043 19.805 23.2557 19.5003 23.2557C19.1956 23.2557 18.9442 23.0043 18.9442 22.6996V22.3416H18.4643C18.1597 22.3416 17.9083 22.0902 17.9083 21.7855C17.9083 21.4809 18.1597 21.2295 18.4643 21.2295H19.9573C20.2772 21.2295 20.5362 20.9705 20.5362 20.6506C20.5362 20.3307 20.2772 20.0717 19.9573 20.0717H19.0432C18.1139 20.0717 17.3598 19.3176 17.3598 18.3883C17.3598 17.4895 18.0606 16.7582 18.9442 16.7049V16.3469C18.9442 16.0422 19.1956 15.7908 19.5003 15.7908C19.805 15.7908 20.0563 16.0422 20.0563 16.3469V16.7049H20.5362C20.8409 16.7049 21.0923 16.9563 21.0923 17.2609C21.0923 17.5656 20.8409 17.817 20.5362 17.817H19.0432C18.7233 17.817 18.4643 18.076 18.4643 18.3959C18.4643 18.7158 18.7233 18.9748 19.0432 18.9748H19.9573C20.8866 18.9748 21.6407 19.7289 21.6407 20.6582ZM25.8682 27.5213C25.8682 27.826 25.6169 28.0773 25.3122 28.0773H15.029L16.1182 29.1666C16.3315 29.3799 16.3315 29.7379 16.1182 29.9512C16.0116 30.0578 15.8669 30.1111 15.7221 30.1111C15.5774 30.1111 15.4403 30.0578 15.3261 29.9512L13.2847 27.9098C13.1247 27.7498 13.079 27.5137 13.1628 27.308C13.2466 27.1023 13.4522 26.9652 13.6731 26.9652H25.3122C25.6245 26.9652 25.8682 27.2166 25.8682 27.5213ZM13.1323 11.4795C13.1323 11.1748 13.3837 10.9234 13.6884 10.9234H23.9716L22.8823 9.83418C22.669 9.6209 22.669 9.26289 22.8823 9.04961C23.0956 8.83633 23.4536 8.83633 23.6669 9.04961L25.7083 11.091C25.8682 11.251 25.9139 11.4871 25.8302 11.6928C25.7464 11.8984 25.5407 12.0355 25.3198 12.0355H13.6884C13.3837 12.0355 13.1323 11.7842 13.1323 11.4795Z" fill="black"/>
</g>
</g>
</g>
</svg>
