<svg width="39" height="39" viewBox="0 0 39 39" fill="none" xmlns="http://www.w3.org/2000/svg">
<g id="Outline">
<path id="Vector" d="M20.15 1.9504H26.0001V4.36778C26 4.50878 26.0459 4.64597 26.1306 4.75864C26.2154 4.87132 26.3345 4.95337 26.47 4.99243C27.257 5.21796 28.0164 5.53059 28.734 5.92454C28.8573 5.99263 28.9995 6.0188 29.139 5.9991C29.2785 5.9794 29.4078 5.91491 29.5075 5.81534L31.2138 4.10972L34.8908 7.78681L33.1852 9.49047C33.0857 9.59015 33.0212 9.71949 33.0015 9.85899C32.9818 9.9985 33.0079 10.1406 33.076 10.264C33.47 10.9816 33.7826 11.741 34.0081 12.528C34.0472 12.6634 34.1293 12.7826 34.2419 12.8673C34.3546 12.9521 34.4918 12.9979 34.6328 12.9979H37.7002C37.8726 12.9979 38.0379 12.9294 38.1598 12.8075C38.2817 12.6856 38.3502 12.5203 38.3502 12.3479C38.3502 12.1755 38.2817 12.0102 38.1598 11.8883C38.0379 11.7664 37.8726 11.6979 37.7002 11.6979H35.1125C34.9279 11.141 34.704 10.598 34.4423 10.0729L36.2695 8.24636C36.3299 8.18599 36.3779 8.11431 36.4106 8.0354C36.4433 7.95649 36.4601 7.8719 36.4601 7.78648C36.4601 7.70106 36.4433 7.61648 36.4106 7.53757C36.3779 7.45866 36.3299 7.38697 36.2695 7.3266L31.6733 2.73041C31.6129 2.66998 31.5413 2.62203 31.4623 2.58932C31.3834 2.55661 31.2989 2.53977 31.2134 2.53977C31.128 2.53977 31.0434 2.55661 30.9645 2.58932C30.8856 2.62203 30.8139 2.66998 30.7536 2.73041L28.9251 4.55823C28.4 4.29659 27.857 4.07263 27.3001 3.88807V1.3004C27.3001 1.128 27.2316 0.962673 27.1097 0.840773C26.9878 0.718873 26.8225 0.650391 26.6501 0.650391H20.15C19.9776 0.650391 19.8123 0.718873 19.6904 0.840773C19.5685 0.962673 19.5 1.128 19.5 1.3004C19.5 1.47279 19.5685 1.63812 19.6904 1.76002C19.8123 1.88192 19.9776 1.9504 20.15 1.9504Z" fill="black"/>
<path id="Vector_2" d="M25.5407 19.3099C25.6633 19.4283 25.8275 19.4938 25.9979 19.4923C26.1683 19.4908 26.3313 19.4225 26.4519 19.302C26.5724 19.1814 26.6407 19.0184 26.6422 18.848C26.6437 18.6775 26.5782 18.5134 26.4598 18.3908L20.5122 12.4432C20.3896 12.3248 20.2254 12.2593 20.055 12.2608C19.8846 12.2622 19.7215 12.3306 19.601 12.4511C19.4805 12.5716 19.4122 12.7347 19.4107 12.9051C19.4092 13.0755 19.4747 13.2397 19.5931 13.3623L25.5407 19.3099Z" fill="black"/>
<path id="Vector_3" d="M16.2501 34.45C16.2501 34.0643 16.1358 33.6873 15.9215 33.3666C15.7072 33.046 15.4027 32.796 15.0464 32.6484C14.69 32.5008 14.298 32.4622 13.9197 32.5375C13.5414 32.6127 13.194 32.7984 12.9212 33.0711C12.6485 33.3439 12.4628 33.6913 12.3876 34.0696C12.3123 34.4479 12.3509 34.8399 12.4985 35.1963C12.6461 35.5526 12.8961 35.8571 13.2167 36.0714C13.5374 36.2857 13.9144 36.4 14.3001 36.4C14.8173 36.4 15.3133 36.1946 15.679 35.8289C16.0447 35.4632 16.2501 34.9672 16.2501 34.45ZM13.6501 34.45C13.6501 34.3215 13.6882 34.1958 13.7597 34.0889C13.8311 33.982 13.9326 33.8987 14.0514 33.8495C14.1701 33.8003 14.3008 33.7874 14.4269 33.8125C14.553 33.8376 14.6688 33.8995 14.7597 33.9904C14.8506 34.0813 14.9126 34.1971 14.9376 34.3232C14.9627 34.4493 14.9498 34.58 14.9006 34.6988C14.8514 34.8175 14.7681 34.9191 14.6612 34.9905C14.5543 35.0619 14.4287 35.1 14.3001 35.1C14.1277 35.1 13.9624 35.0315 13.8405 34.9096C13.7186 34.7877 13.6501 34.6224 13.6501 34.45Z" fill="black"/>
<path id="Vector_4" d="M38.6065 29.3026L34.3112 27.4617L33.8653 26.2755L36.2703 23.8705C36.3308 23.8101 36.3787 23.7384 36.4114 23.6595C36.4441 23.5806 36.461 23.496 36.461 23.4106C36.461 23.3252 36.4441 23.2406 36.4114 23.1617C36.3787 23.0828 36.3308 23.0111 36.2703 22.9507L34.4425 21.1248C34.7042 20.5997 34.9281 20.0567 35.1127 19.4998H37.7004C37.8728 19.4998 38.0381 19.4313 38.16 19.3094C38.2819 19.1875 38.3504 19.0222 38.3504 18.8498V14.9498C38.3504 14.7774 38.2819 14.612 38.16 14.4901C38.0381 14.3682 37.8728 14.2998 37.7004 14.2998C37.528 14.2998 37.3626 14.3682 37.2407 14.4901C37.1188 14.612 37.0504 14.7774 37.0504 14.9498V18.1998H34.633C34.492 18.1998 34.3548 18.2456 34.2421 18.3304C34.1294 18.4152 34.0474 18.5343 34.0083 18.6698C33.7828 19.4567 33.4702 20.2161 33.0762 20.9337C33.0081 21.0571 32.982 21.1992 33.0017 21.3387C33.0214 21.4782 33.0858 21.6076 33.1854 21.7072L34.891 23.4135L33.3655 24.9384L32.4594 22.521C32.4128 22.3972 32.3295 22.2905 32.2207 22.2152C32.1118 22.14 31.9826 22.0997 31.8503 22.0998H27.7078C29.261 21.069 30.3936 19.516 30.9005 17.7222C31.4074 15.9283 31.2552 14.0122 30.4713 12.3209C29.6874 10.6297 28.3238 9.27502 26.6273 8.5024C24.9309 7.72978 23.0138 7.59026 21.2234 8.10911C21.4319 7.33757 21.4336 6.5247 21.2282 5.7523C21.0228 4.9799 20.6176 4.27524 20.0533 3.70922L17.2941 0.95189C16.6846 0.342404 15.8579 0 14.996 0C14.134 0 13.3074 0.342404 12.6979 0.95189L11.7788 1.871C11.6569 1.99289 11.5884 2.15819 11.5884 2.33055C11.5884 2.50291 11.6569 2.66821 11.7788 2.79011L13.0001 4.01147C13.1227 4.12987 13.2869 4.19539 13.4573 4.19391C13.6278 4.19243 13.7908 4.12407 13.9113 4.00355C14.0318 3.88303 14.1002 3.72 14.1017 3.54958C14.1032 3.37915 14.0376 3.21495 13.9192 3.09236L13.1574 2.33055L13.617 1.871C13.9885 1.51644 14.4824 1.31862 14.996 1.31862C15.5096 1.31862 16.0034 1.51644 16.375 1.871L19.1336 4.62832C19.7421 5.23833 20.0839 6.06479 20.0839 6.92642C20.0839 7.78806 19.7421 8.61451 19.1336 9.22452L16.375 11.9831C15.765 12.5917 14.9385 12.9334 14.0769 12.9334C13.2152 12.9334 12.3888 12.5917 11.7788 11.9831L9.02144 9.22452C8.84033 9.04344 8.69666 8.82845 8.59864 8.59185C8.50062 8.35524 8.45017 8.10164 8.45017 7.84553C8.45017 7.58942 8.50062 7.33582 8.59864 7.09921C8.69666 6.86261 8.84033 6.64762 9.02144 6.46654L9.48099 6.00699L12.6979 9.22452C12.879 9.40563 13.0939 9.5493 13.3305 9.64731C13.5672 9.74533 13.8208 9.79578 14.0769 9.79578C14.333 9.79578 14.5866 9.74533 14.8232 9.64731C15.0598 9.5493 15.2748 9.40563 15.4558 9.22452L16.375 8.30541C16.5561 8.12433 16.6997 7.90935 16.7978 7.67274C16.8958 7.43613 16.9462 7.18253 16.9462 6.92642C16.9462 6.67031 16.8958 6.41671 16.7978 6.18011C16.6997 5.9435 16.5561 5.72851 16.375 5.54743L15.7575 4.93058C15.6975 4.8685 15.6258 4.81898 15.5465 4.78491C15.4672 4.75084 15.3819 4.73291 15.2956 4.73216C15.2092 4.73141 15.1237 4.74786 15.0438 4.78054C14.9639 4.81322 14.8913 4.86149 14.8303 4.92252C14.7693 4.98355 14.721 5.05613 14.6883 5.13601C14.6556 5.21589 14.6392 5.30149 14.6399 5.38779C14.6407 5.4741 14.6586 5.55939 14.6927 5.6387C14.7267 5.718 14.7763 5.78973 14.8383 5.84969L15.4558 6.46654C15.5163 6.52691 15.5642 6.5986 15.5969 6.67751C15.6297 6.75642 15.6465 6.841 15.6465 6.92642C15.6465 7.01184 15.6297 7.09643 15.5969 7.17533C15.5642 7.25424 15.5163 7.32593 15.4558 7.3863L14.5367 8.30541C14.4764 8.36584 14.4047 8.41379 14.3258 8.4465C14.2469 8.47921 14.1623 8.49605 14.0769 8.49605C13.9914 8.49605 13.9069 8.47921 13.8279 8.4465C13.749 8.41379 13.6773 8.36584 13.617 8.30541L9.94055 4.62832C9.81865 4.50647 9.65335 4.43801 9.48099 4.43801C9.30863 4.43801 9.14333 4.50647 9.02144 4.62832L8.10233 5.54743C7.49284 6.15693 7.15044 6.98358 7.15044 7.84553C7.15044 8.70748 7.49284 9.53413 8.10233 10.1436L9.65779 11.6997H9.10009C8.9277 11.6997 8.76236 11.7682 8.64046 11.8901C8.51856 12.012 8.45008 12.1774 8.45008 12.3497V14.056C7.85546 14.2291 7.2797 14.4615 6.73146 14.7496L5.5361 13.5542C5.41421 13.4324 5.24891 13.3639 5.07655 13.3639C4.90419 13.3639 4.73889 13.4324 4.61699 13.5542L1.85447 16.3148C1.73261 16.4367 1.66415 16.602 1.66415 16.7743C1.66415 16.9467 1.73261 17.112 1.85447 17.2339L3.04983 18.4293C2.75571 18.9773 2.51789 19.5538 2.34002 20.1498H0.650006C0.477614 20.1498 0.312282 20.2183 0.190382 20.3402C0.0684826 20.4621 0 20.6274 0 20.7998V24.6999C0 24.8723 0.0684826 25.0376 0.190382 25.1595C0.312282 25.2814 0.477614 25.3499 0.650006 25.3499H2.34002C2.51968 25.9454 2.75924 26.5212 3.05503 27.0685L1.85447 28.2638C1.73233 28.3857 1.66361 28.5511 1.66342 28.7237C1.66333 28.8091 1.68007 28.8937 1.71268 28.9727C1.7453 29.0517 1.79314 29.1235 1.85349 29.1839C1.91384 29.2444 1.98551 29.2924 2.06441 29.3252C2.14331 29.358 2.2279 29.3749 2.31333 29.375C2.48588 29.3752 2.65144 29.3068 2.77358 29.1849L4.32059 27.6379C4.42394 27.5347 4.48951 27.3996 4.50673 27.2546C4.52394 27.1096 4.49181 26.9629 4.41549 26.8384C3.98109 26.13 3.66084 25.3577 3.46648 24.5497C3.43269 24.4074 3.35187 24.2806 3.2371 24.1899C3.12233 24.0992 2.98032 24.0499 2.83403 24.0499H1.30001V21.4498H2.83403C2.98005 21.4499 3.12186 21.4009 3.2366 21.3106C3.35133 21.2202 3.43231 21.0939 3.46648 20.9519C3.66084 20.144 3.98109 19.3717 4.41549 18.6633C4.49181 18.5387 4.52394 18.3921 4.50673 18.247C4.48951 18.102 4.42394 17.967 4.32059 17.8638L3.23313 16.7763L5.07655 14.9329L6.16401 16.0203C6.26723 16.1237 6.40225 16.1893 6.5473 16.2065C6.69235 16.2237 6.83897 16.1915 6.96352 16.1152C7.43321 15.8293 7.93142 15.5932 8.45008 15.4106V18.2648C7.66681 18.7156 7.01489 19.3631 6.5589 20.1434C6.10291 20.9236 5.85869 21.8094 5.85041 22.7131C5.84213 23.6168 6.0701 24.5069 6.51172 25.2954C6.95334 26.0838 7.59329 26.7432 8.36818 27.2082C8.46903 27.2696 8.58486 27.302 8.70293 27.3018C8.84487 27.3017 8.98286 27.2551 9.09583 27.1692C9.2088 27.0832 9.29053 26.9627 9.32855 26.8259C9.36657 26.6892 9.35879 26.5438 9.30638 26.4118C9.25398 26.2799 9.15983 26.1688 9.03834 26.0954C8.47054 25.7529 7.99947 25.2712 7.66963 24.6959C7.33979 24.1207 7.16209 23.4708 7.1533 22.8077C7.14452 22.1446 7.30495 21.4903 7.61943 20.9065C7.93392 20.3227 8.39207 19.8287 8.95059 19.4712C8.99902 19.487 9.04925 19.4966 9.10009 19.4998H11.6878C11.8723 20.0567 12.0963 20.5997 12.3579 21.1248L10.5301 22.9533C10.4697 23.0137 10.4217 23.0854 10.389 23.1643C10.3563 23.2432 10.3395 23.3278 10.3395 23.4132C10.3395 23.4986 10.3563 23.5832 10.389 23.6621C10.4217 23.741 10.4697 23.8127 10.5301 23.8731L13.4844 26.8267L13.2075 27.3798L5.44185 29.0445C5.0063 29.1395 4.61615 29.3801 4.33583 29.7267C4.05551 30.0733 3.90179 30.5052 3.90004 30.951V35.1C3.90004 35.2724 3.96852 35.4377 4.09042 35.5596C4.21232 35.6815 4.37765 35.75 4.55004 35.75H9.9451C10.1863 36.5589 10.6477 37.2847 11.2777 37.8464C11.9078 38.4081 12.6817 38.7834 13.5129 38.9304C14.344 39.0775 15.1997 38.9904 15.9842 38.679C16.7687 38.3676 17.4512 37.844 17.9552 37.167C18.4592 36.4899 18.765 35.686 18.8383 34.8451C18.9116 34.0042 18.7496 33.1595 18.3703 32.4055C17.9911 31.6514 17.4095 31.0177 16.6907 30.5752C15.9719 30.1327 15.1442 29.8989 14.3001 29.8999C13.622 29.8995 12.9525 30.0524 12.3417 30.3471C12.1966 30.4275 12.0877 30.5602 12.0373 30.7182C11.9869 30.8762 11.9988 31.0475 12.0705 31.1971C12.1423 31.3466 12.2685 31.463 12.4233 31.5225C12.5781 31.582 12.7498 31.5801 12.9033 31.5171C13.3392 31.3078 13.8166 31.1994 14.3001 31.1999C15.0074 31.1978 15.6962 31.4257 16.2625 31.8494C16.8289 32.273 17.2421 32.8694 17.4398 33.5485C17.6375 34.2275 17.609 34.9525 17.3586 35.6139C17.1081 36.2754 16.6494 36.8374 16.0515 37.2153C15.4536 37.5931 14.7491 37.7663 14.0441 37.7086C13.3392 37.6509 12.6722 37.3656 12.1437 36.8955C11.6152 36.4255 11.2539 35.7964 11.1143 35.103C10.9747 34.4096 11.0644 33.6897 11.3699 33.0518C11.4314 32.8986 11.4322 32.7277 11.3723 32.5739C11.3124 32.4201 11.1962 32.2949 11.0474 32.2236C10.8985 32.1523 10.7281 32.1403 10.5707 32.19C10.4133 32.2398 10.2807 32.3476 10.1999 32.4915C9.90466 33.1022 9.75092 33.7716 9.75009 34.45H5.20005V33.1499H5.85006C6.36723 33.1499 6.86323 32.9445 7.22893 32.5788C7.59463 32.2131 7.80007 31.7171 7.80007 31.1999V29.8681L13.7184 28.5999H33.6703L37.7004 30.3283V30.5499H37.0504C36.878 30.5499 36.7126 30.6184 36.5907 30.7403C36.4688 30.8622 36.4003 31.0275 36.4003 31.1999C36.4003 31.3723 36.4688 31.5377 36.5907 31.6596C36.7126 31.7815 36.878 31.8499 37.0504 31.8499H37.7004V34.45H35.7503C35.7503 33.2432 35.271 32.0859 34.4177 31.2326C33.5644 30.3793 32.407 29.8999 31.2003 29.8999C29.9936 29.8999 28.8362 30.3793 27.9829 31.2326C27.1296 32.0859 26.6503 33.2432 26.6503 34.45H20.7417C20.5693 34.45 20.404 34.5184 20.2821 34.6403C20.1602 34.7622 20.0917 34.9276 20.0917 35.1C20.0917 35.2724 20.1602 35.4377 20.2821 35.5596C20.404 35.6815 20.5693 35.75 20.7417 35.75H26.8453C27.1264 36.6873 27.7022 37.5091 28.4873 38.0933C29.2724 38.6775 30.2249 38.993 31.2036 38.993C32.1822 38.993 33.1347 38.6775 33.9198 38.0933C34.7049 37.5091 35.2807 36.6873 35.5618 35.75H38.3504C38.5228 35.75 38.6881 35.6815 38.81 35.5596C38.9319 35.4377 39.0004 35.2724 39.0004 35.1V29.8999C39.0004 29.7727 38.963 29.6483 38.893 29.5422C38.823 29.436 38.7234 29.3527 38.6065 29.3026ZM6.50006 31.1999C6.50006 31.3723 6.43158 31.5377 6.30968 31.6596C6.18778 31.7815 6.02245 31.8499 5.85006 31.8499H5.20005V30.951C5.20004 30.8022 5.25108 30.6579 5.34466 30.5422C5.43824 30.4265 5.56868 30.3464 5.71421 30.3153L6.50006 30.1469V31.1999ZM32.8624 27.2999H14.7018L16.6519 23.3999H23.4002V25.3499C23.4002 25.5223 23.4687 25.6876 23.5906 25.8095C23.7125 25.9314 23.8778 25.9999 24.0502 25.9999C24.2226 25.9999 24.388 25.9314 24.5099 25.8095C24.6318 25.6876 24.7002 25.5223 24.7002 25.3499V23.3999H31.3999L32.8624 27.2999ZM29.9003 15.5998C29.8988 16.0928 29.8417 16.5841 29.73 17.0642L21.941 9.27002C22.8936 9.04726 23.8842 9.04298 24.8387 9.2575C25.7932 9.47201 26.6868 9.89976 27.4525 10.5087C28.2182 11.1176 28.8361 11.8919 29.26 12.7736C29.684 13.6553 29.9028 14.6215 29.9003 15.5998ZM20.0527 10.1436C20.2063 9.98776 20.3484 9.82092 20.4778 9.64442L29.2503 18.4202C28.8611 19.2293 28.3074 19.9484 27.6248 20.5316C26.942 21.1148 26.1453 21.5493 25.2852 21.8073L16.7949 13.3248C16.9714 13.1954 17.1382 13.0533 17.2941 12.8997L20.0527 10.1436ZM11.9094 23.4135L13.615 21.7098C13.7146 21.6102 13.7791 21.4808 13.7988 21.3413C13.8185 21.2018 13.7923 21.0597 13.7242 20.9363C13.3303 20.2187 13.0176 19.4593 12.7921 18.6724C12.7535 18.5364 12.6717 18.4167 12.559 18.3314C12.4462 18.2462 12.3088 18.1999 12.1675 18.1998H9.75009V12.9998H10.9682C11.5758 13.5728 12.3301 13.9665 13.1476 14.1373C13.9651 14.3082 14.814 14.2494 15.6001 13.9676L23.7161 22.0803C23.6108 22.0855 23.5062 22.0998 23.4002 22.0998C21.986 22.0969 20.611 21.6343 19.4826 20.7818C18.3541 19.9294 17.5333 18.7332 17.1439 17.3736C17.0928 17.2129 16.9812 17.0784 16.8328 16.9984C16.6843 16.9185 16.5106 16.8993 16.3482 16.945C16.1859 16.9908 16.0477 17.0978 15.9628 17.2435C15.878 17.3892 15.853 17.5622 15.8933 17.7259C16.4046 19.522 17.5444 21.0743 19.105 22.0998H16.2502C16.1294 22.0998 16.0109 22.1334 15.9082 22.1969C15.8054 22.2604 15.7224 22.3512 15.6684 22.4593L14.0973 25.6014L11.9094 23.4135ZM31.2003 37.7C30.5575 37.7 29.9291 37.5094 29.3947 37.1523C28.8602 36.7951 28.4436 36.2876 28.1977 35.6937C27.9517 35.0998 27.8873 34.4464 28.0127 33.8159C28.1381 33.1855 28.4477 32.6064 28.9022 32.1518C29.3567 31.6973 29.9358 31.3878 30.5662 31.2624C31.1967 31.137 31.8502 31.2013 32.444 31.4473C33.0379 31.6933 33.5455 32.1099 33.9026 32.6443C34.2597 33.1788 34.4503 33.8072 34.4503 34.45C34.4493 35.3116 34.1066 36.1377 33.4973 36.7469C32.888 37.3562 32.0619 37.699 31.2003 37.7Z" fill="black"/>
<path id="Vector_5" d="M31.2005 32.5C30.8148 32.5 30.4378 32.6144 30.1171 32.8286C29.7965 33.0429 29.5465 33.3475 29.3989 33.7038C29.2513 34.0601 29.2127 34.4522 29.288 34.8304C29.3632 35.2087 29.5489 35.5562 29.8216 35.8289C30.0944 36.1016 30.4418 36.2873 30.8201 36.3626C31.1983 36.4378 31.5904 36.3992 31.9467 36.2516C32.3031 36.104 32.6076 35.8541 32.8219 35.5334C33.0362 35.2127 33.1505 34.8357 33.1505 34.45C33.1505 33.9328 32.9451 33.4368 32.5794 33.0711C32.2137 32.7054 31.7177 32.5 31.2005 32.5ZM31.2005 35.1C31.0719 35.1 30.9463 35.0619 30.8394 34.9905C30.7325 34.9191 30.6492 34.8175 30.6 34.6988C30.5508 34.58 30.5379 34.4493 30.563 34.3232C30.5881 34.1971 30.65 34.0813 30.7409 33.9904C30.8318 33.8995 30.9476 33.8376 31.0737 33.8125C31.1998 33.7874 31.3305 33.8003 31.4493 33.8495C31.568 33.8987 31.6695 33.982 31.741 34.0889C31.8124 34.1958 31.8505 34.3215 31.8505 34.45C31.8505 34.6224 31.782 34.7877 31.6601 34.9096C31.5382 35.0315 31.3729 35.1 31.2005 35.1Z" fill="black"/>
<path id="Vector_6" d="M22.7503 31.2004C22.9227 31.2004 23.088 31.1319 23.2099 31.01C23.3318 30.8881 23.4003 30.7228 23.4003 30.5504C23.4003 30.378 23.3318 30.2127 23.2099 30.0908C23.088 29.9689 22.9227 29.9004 22.7503 29.9004H21.4503C21.2779 29.9004 21.1126 29.9689 20.9907 30.0908C20.8688 30.2127 20.8003 30.378 20.8003 30.5504C20.8003 30.7228 20.8688 30.8881 20.9907 31.01C21.1126 31.1319 21.2779 31.2004 21.4503 31.2004H22.7503Z" fill="black"/>
</g>
</svg>
