<svg width="39" height="39" viewBox="0 0 39 39" fill="none" xmlns="http://www.w3.org/2000/svg">
<g id="ecommerce 2">
<g id="Smartphone">
<path id="Vector" d="M18.3121 26.3253C18.1677 26.185 17.9742 26.1064 17.7728 26.1064C17.5715 26.1064 17.378 26.185 17.2335 26.3253C17.1626 26.3961 17.1063 26.4801 17.0679 26.5726C17.0295 26.6652 17.0098 26.7644 17.0098 26.8646C17.0098 26.9648 17.0295 27.064 17.0679 27.1565C17.1063 27.2491 17.1626 27.3331 17.2335 27.4039C17.3712 27.5433 17.558 27.6233 17.7539 27.6267C17.9498 27.6302 18.1392 27.5567 18.2817 27.4222C18.4216 27.2788 18.5 27.0863 18.5 26.8859C18.5 26.6855 18.4216 26.4931 18.2817 26.3497L18.3121 26.3253Z" fill="black"/>
<path id="Vector_2" d="M21.7549 26.3307C21.6846 26.2599 21.6011 26.2038 21.5091 26.1655C21.417 26.1272 21.3183 26.1074 21.2186 26.1074C21.1189 26.1074 21.0202 26.1272 20.9282 26.1655C20.8362 26.2038 20.7526 26.2599 20.6824 26.3307C20.576 26.4373 20.5037 26.573 20.4745 26.7207C20.4452 26.8684 20.4604 27.0215 20.5181 27.1606C20.5758 27.2996 20.6735 27.4185 20.7987 27.5021C20.9239 27.5857 21.0711 27.6303 21.2217 27.6303C21.3723 27.6303 21.5194 27.5857 21.6447 27.5021C21.7699 27.4185 21.8675 27.2996 21.9252 27.1606C21.9829 27.0215 21.9981 26.8684 21.9689 26.7207C21.9397 26.573 21.8673 26.4373 21.761 26.3307H21.7549Z" fill="black"/>
<path id="Vector_3" d="M24.4301 18.7814H23.2113C23.0688 18.7785 22.9297 18.8257 22.8184 18.9148C22.707 19.0039 22.6304 19.1292 22.6019 19.2689L22.3887 20.2926H16.1121C16.0221 20.2932 15.9333 20.3137 15.8522 20.3527C15.7711 20.3917 15.6996 20.4482 15.6429 20.5181C15.5854 20.5877 15.5442 20.6691 15.522 20.7566C15.4999 20.8441 15.4975 20.9354 15.5149 21.0239L16.3741 25.1676C16.4026 25.3073 16.4792 25.4326 16.5905 25.5217C16.7019 25.6108 16.8409 25.658 16.9835 25.6551H22.0352C22.1778 25.658 22.3168 25.6108 22.4282 25.5217C22.5395 25.4326 22.6161 25.3073 22.6446 25.1676L23.5038 21.0239L23.7171 20.0001H24.4544C24.6161 20.0001 24.7711 19.9359 24.8853 19.8216C24.9996 19.7074 25.0638 19.5524 25.0638 19.3907C25.0638 19.2291 24.9996 19.0741 24.8853 18.9599C24.7711 18.8456 24.6161 18.7814 24.4544 18.7814H24.4301ZM21.5294 24.4364H17.4649L16.8555 21.5114H22.1266L21.5294 24.4364Z" fill="black"/>
<path id="Vector_4" d="M11.8769 35.9531H27.1113C27.7363 35.9515 28.3352 35.7025 28.7771 35.2606C29.219 34.8187 29.468 34.2198 29.4696 33.5948V16.4531C29.8059 16.2113 30.0808 15.8941 30.2723 15.5269C30.4639 15.1597 30.5667 14.7527 30.5726 14.3386V8.85422C30.5818 8.79159 30.5818 8.72794 30.5726 8.66531L29.1649 4.39969C29.0392 4.01178 28.7954 3.67286 28.4677 3.43031C28.1399 3.18775 27.7445 3.05369 27.3368 3.04688H11.7002C11.2873 3.04733 10.8851 3.17845 10.5512 3.42145C10.2174 3.66446 9.96898 4.00688 9.84163 4.39969L8.45226 8.66531C8.443 8.72794 8.443 8.79159 8.45226 8.85422V14.3386C8.45248 14.7499 8.54906 15.1553 8.73425 15.5225C8.91944 15.8898 9.18809 16.2085 9.51866 16.4531V33.5948C9.52027 34.2198 9.76925 34.8187 10.2112 35.2606C10.6531 35.7025 11.252 35.9515 11.8769 35.9531ZM9.64054 9.43312H12.6082V14.3447C12.5804 14.7218 12.4101 15.0741 12.1318 15.33C11.8535 15.5859 11.4881 15.7262 11.1101 15.7223C10.732 15.7185 10.3696 15.5707 10.0966 15.3091C9.82363 15.0475 9.66054 14.6918 9.64054 14.3142V9.43312ZM29.3599 9.43312V14.3081C29.3357 14.6852 29.1689 15.039 28.8933 15.2975C28.6177 15.556 28.254 15.6999 27.8761 15.6999C27.4982 15.6999 27.1345 15.556 26.8589 15.2975C26.5833 15.039 26.4164 14.6852 26.3923 14.3081V9.43312H29.3599ZM12.7483 16.3983C12.9197 16.2895 13.079 16.1628 13.2237 16.0205C13.4762 16.3312 13.7949 16.5817 14.1564 16.7538C14.518 16.9258 14.9134 17.0151 15.3138 17.0151C15.7142 17.0151 16.1096 16.9258 16.4712 16.7538C16.8328 16.5817 17.1514 16.3312 17.404 16.0205C17.6577 16.3314 17.9775 16.582 18.34 16.7541C18.7026 16.9262 19.0989 17.0155 19.5002 17.0155C19.9016 17.0155 20.2979 16.9262 20.6604 16.7541C21.023 16.582 21.3427 16.3314 21.5965 16.0205C21.8496 16.3313 22.1688 16.5819 22.5309 16.7539C22.893 16.926 23.2888 17.0153 23.6897 17.0153C24.0906 17.0153 24.4864 16.926 24.8485 16.7539C25.2105 16.5819 25.5297 16.3313 25.7829 16.0205C25.9235 16.1588 26.0788 16.2814 26.246 16.3861V29.7923H12.7483V16.3983ZM20.9871 14.3142C20.9671 14.6918 20.804 15.0475 20.531 15.3091C20.258 15.5707 19.8956 15.7185 19.5176 15.7223C19.1395 15.7262 18.7742 15.5859 18.4959 15.33C18.2176 15.0741 18.0472 14.7218 18.0194 14.3447V9.43312H20.9871V14.3142ZM25.1735 14.3142C25.1493 14.6913 24.9825 15.0451 24.7069 15.3036C24.4313 15.5621 24.0676 15.706 23.6897 15.706C23.3118 15.706 22.9481 15.5621 22.6725 15.3036C22.3969 15.0451 22.23 14.6913 22.2058 14.3142V9.43922H25.1735V14.3142ZM22.1693 8.22047L21.9377 4.26562H24.2899L25.0638 8.21437L22.1693 8.22047ZM20.9505 8.22047H18.0621L18.318 4.26562H20.719L20.9505 8.22047ZM16.8494 8.22047H13.961L14.7349 4.26562H17.0932L16.8494 8.22047ZM16.8068 9.43922V14.3142C16.8068 14.7069 16.6508 15.0836 16.3731 15.3613C16.0954 15.639 15.7187 15.795 15.326 15.795C14.9333 15.795 14.5566 15.639 14.2789 15.3613C14.0012 15.0836 13.8452 14.7069 13.8452 14.3142V9.43922H16.8068ZM28.263 33.6009C28.2622 33.7506 28.232 33.8986 28.174 34.0366C28.116 34.1745 28.0314 34.2997 27.925 34.4049C27.8186 34.5102 27.6925 34.5934 27.554 34.65C27.4154 34.7065 27.2671 34.7352 27.1174 34.7344H11.883C11.5808 34.7344 11.291 34.6143 11.0773 34.4006C10.8636 34.1869 10.7435 33.8971 10.7435 33.5948V16.9345C10.8735 16.9703 11.0059 16.9968 11.1396 17.0138C11.2742 16.9956 11.4068 16.965 11.5357 16.9223V30.4078C11.5357 30.5694 11.5999 30.7244 11.7142 30.8387C11.8285 30.953 11.9835 31.0172 12.1451 31.0172H26.8554C27.017 31.0172 27.172 30.953 27.2863 30.8387C27.4006 30.7244 27.4648 30.5694 27.4648 30.4078V16.9223C27.5986 16.9621 27.735 16.9927 27.873 17.0138C28.0028 16.9967 28.1311 16.9703 28.2569 16.9345L28.263 33.6009ZM28.0315 4.7775L29.1527 8.21437H26.2826L25.5087 4.26562H27.3368C27.4917 4.26717 27.6421 4.31745 27.7668 4.40933C27.8915 4.50121 27.9841 4.63003 28.0315 4.7775ZM11.0238 4.7775C11.0701 4.63292 11.16 4.50617 11.281 4.41456C11.4021 4.32294 11.5485 4.27093 11.7002 4.26562H13.4918L12.7179 8.21437H9.8721L11.0238 4.7775Z" fill="black"/>
<path id="Vector_5" d="M20.7188 32.1689H18.2812C18.1196 32.1689 17.9646 32.2331 17.8504 32.3474C17.7361 32.4617 17.6719 32.6167 17.6719 32.7783C17.6719 32.9399 17.7361 33.0949 17.8504 33.2092C17.9646 33.3235 18.1196 33.3877 18.2812 33.3877H20.7188C20.8804 33.3877 21.0354 33.3235 21.1496 33.2092C21.2639 33.0949 21.3281 32.9399 21.3281 32.7783C21.3281 32.6167 21.2639 32.4617 21.1496 32.3474C21.0354 32.2331 20.8804 32.1689 20.7188 32.1689Z" fill="black"/>
</g>
</g>
</svg>
