<svg width="39" height="39" viewBox="0 0 39 39" fill="none" xmlns="http://www.w3.org/2000/svg">
<g id="joystick 2" clip-path="url(#clip0_2167_1152)">
<g id="Group">
<g id="Group_2">
<path id="Vector" d="M14.9507 26.6489H12.3511V24.0493C12.3511 23.6904 12.0601 23.3994 11.7012 23.3994H9.10158C8.74267 23.3994 8.45167 23.6904 8.45167 24.0493V26.6489H5.85205C5.49314 26.6489 5.20215 26.9399 5.20215 27.2988V29.8985C5.20215 30.2574 5.49314 30.5484 5.85205 30.5484H8.45167V33.148C8.45167 33.5069 8.74267 33.7979 9.10158 33.7979H11.7012C12.0601 33.7979 12.3511 33.5069 12.3511 33.148V30.5484H14.9507C15.3096 30.5484 15.6006 30.2574 15.6006 29.8985V27.2988C15.6006 26.9399 15.3096 26.6489 14.9507 26.6489ZM14.3008 29.2486H11.7012C11.3423 29.2486 11.0513 29.5396 11.0513 29.8985V32.4981H9.75148V29.8985C9.75148 29.5396 9.46049 29.2486 9.10158 29.2486H6.50196V27.9488H9.10158C9.46049 27.9488 9.75148 27.6578 9.75148 27.2988V24.6992H11.0513V27.2988C11.0513 27.6578 11.3423 27.9488 11.7012 27.9488H14.3008V29.2486Z" fill="black"/>
</g>
</g>
<g id="Group_3">
<g id="Group_4">
<path id="Vector_2" d="M38.9321 27.4114C38.4336 22.9329 34.2274 18.7429 29.745 18.2653C29.3643 18.2233 28.9816 18.2016 28.5986 18.2003H21.4496V15.6007H20.1498V14.3008C20.1498 12.8651 18.9859 11.7012 17.5502 11.7012H14.3007C13.5828 11.7012 13.0008 11.1193 13.0008 10.4014C13.0008 9.68351 13.5828 9.1016 14.3007 9.1016H24.6991C26.1349 9.1016 27.2988 7.9377 27.2988 6.50198C27.2988 5.06626 26.1349 3.90236 24.6991 3.90236H21.4496C20.7317 3.90236 20.1498 3.32045 20.1498 2.60255V0.00292969H18.85V2.60255C18.85 4.03827 20.0139 5.20217 21.4496 5.20217H24.6991C25.417 5.20217 25.9989 5.78408 25.9989 6.50198C25.9989 7.21988 25.417 7.80179 24.6991 7.80179H14.3007C12.8649 7.80179 11.701 8.96569 11.701 10.4014C11.701 11.8371 12.8649 13.001 14.3007 13.001H17.5502C18.2681 13.001 18.85 13.5829 18.85 14.3008V15.6007H17.5502V18.2003H10.4012C10.0178 18.2012 9.63458 18.2229 9.25349 18.2653C4.76914 18.7462 0.565558 22.9361 0.0683806 27.4146C-0.58453 33.1203 3.5115 38.275 9.21726 38.9279C11.5407 39.1938 13.8858 38.6687 15.8741 37.4375C16.7301 36.8772 17.7085 36.5314 18.7265 36.4295C19.2294 36.3898 19.7344 36.388 20.2375 36.4243C21.2716 36.5243 22.2658 36.8741 23.1348 37.4434C28.0201 40.4625 34.4279 38.9498 37.447 34.0645C38.6755 32.0766 39.1987 29.7329 38.9321 27.4114ZM18.85 16.9005H20.1498V18.2003H18.85V16.9005ZM35.3803 34.665C32.442 37.9515 27.5694 38.6568 23.8198 36.3385C22.7727 35.6566 21.5749 35.241 20.3305 35.1277C20.0562 35.1078 19.7794 35.0978 19.4999 35.0978C19.2042 35.0978 18.915 35.1102 18.6238 35.1329C17.3983 35.2503 16.2194 35.6618 15.1871 36.3326C10.9138 38.9765 5.30637 37.6558 2.6624 33.3825C1.58607 31.6428 1.1274 29.5912 1.36039 27.5589C1.78803 23.7102 5.54058 19.9719 9.39322 19.5579C9.72792 19.5205 10.0644 19.5012 10.4012 19.5001H28.5986C28.9353 19.5003 29.2718 19.5183 29.6066 19.554C33.4586 19.968 37.2105 23.7063 37.6394 27.555C37.9458 30.1398 37.1225 32.7311 35.3803 34.665Z" fill="black"/>
</g>
</g>
<g id="Group_5">
<g id="Group_6">
<path id="Vector_3" d="M28.5986 22.0996C27.1629 22.0996 25.999 23.2635 25.999 24.6992C25.999 26.135 27.1629 27.2989 28.5986 27.2989C30.0344 27.2989 31.1983 26.135 31.1983 24.6992C31.1983 23.2635 30.0344 22.0996 28.5986 22.0996ZM28.5986 25.999C27.8807 25.999 27.2988 25.4171 27.2988 24.6992C27.2988 23.9813 27.8807 23.3994 28.5986 23.3994C29.3165 23.3994 29.8985 23.9813 29.8985 24.6992C29.8985 25.4171 29.3165 25.999 28.5986 25.999Z" fill="black"/>
</g>
</g>
<g id="Group_7">
<g id="Group_8">
<path id="Vector_4" d="M28.5986 29.8984C27.1629 29.8984 25.999 31.0623 25.999 32.4981C25.999 33.9338 27.1629 35.0977 28.5986 35.0977C30.0344 35.0977 31.1983 33.9338 31.1983 32.4981C31.1983 31.0623 30.0344 29.8984 28.5986 29.8984ZM28.5986 33.7979C27.8807 33.7979 27.2988 33.216 27.2988 32.4981C27.2988 31.7802 27.8807 31.1982 28.5986 31.1982C29.3165 31.1982 29.8985 31.7802 29.8985 32.4981C29.8985 33.216 29.3165 33.7979 28.5986 33.7979Z" fill="black"/>
</g>
</g>
<g id="Group_9">
<g id="Group_10">
<path id="Vector_5" d="M24.0493 25.999C22.6136 25.999 21.4497 27.1629 21.4497 28.5986C21.4497 30.0344 22.6136 31.1983 24.0493 31.1983C25.485 31.1983 26.6489 30.0344 26.6489 28.5986C26.6489 27.1629 25.485 25.999 24.0493 25.999ZM24.0493 29.8985C23.3314 29.8985 22.7495 29.3165 22.7495 28.5986C22.7495 27.8807 23.3314 27.2988 24.0493 27.2988C24.7672 27.2988 25.3491 27.8807 25.3491 28.5986C25.3491 29.3165 24.7671 29.8985 24.0493 29.8985Z" fill="black"/>
</g>
</g>
<g id="Group_11">
<g id="Group_12">
<path id="Vector_6" d="M33.148 25.999C31.7122 25.999 30.5483 27.1629 30.5483 28.5986C30.5483 30.0344 31.7122 31.1983 33.148 31.1983C34.5837 31.1983 35.7476 30.0344 35.7476 28.5986C35.7476 27.1629 34.5837 25.999 33.148 25.999ZM33.148 29.8985C32.4301 29.8985 31.8482 29.3165 31.8482 28.5986C31.8482 27.8807 32.4301 27.2988 33.148 27.2988C33.8659 27.2988 34.4478 27.8807 34.4478 28.5986C34.4478 29.3165 33.8658 29.8985 33.148 29.8985Z" fill="black"/>
</g>
</g>
</g>
<defs>
<clipPath id="clip0_2167_1152">
<rect width="39" height="39" fill="white"/>
</clipPath>
</defs>
</svg>
