<svg width="39" height="39" viewBox="0 0 39 39" fill="none" xmlns="http://www.w3.org/2000/svg">
<g id="fertilizer 2">
<g id="Group">
<path id="Vector" d="M29.0347 31.9883C28.8933 31.9883 28.7576 32.0445 28.6576 32.1445C28.5576 32.2444 28.5015 32.3801 28.5015 32.5215C28.5015 32.6629 28.5576 32.7985 28.6576 32.8985C28.7576 32.9985 28.8933 33.0547 29.0347 33.0547C29.3694 33.0551 29.6903 33.1882 29.927 33.4249C30.1637 33.6616 30.2969 33.9826 30.2973 34.3173C30.2973 34.4587 30.3535 34.5943 30.4535 34.6943C30.5535 34.7943 30.6891 34.8505 30.8305 34.8505C30.9719 34.8505 31.1075 34.7943 31.2075 34.6943C31.3075 34.5943 31.3637 34.4587 31.3637 34.3173C31.363 33.6998 31.1174 33.1079 30.6807 32.6712C30.2441 32.2346 29.6521 31.989 29.0347 31.9883Z" fill="black"/>
<path id="Vector_2" d="M25.9314 29.4805C25.3076 29.4813 24.7096 29.7295 24.2685 30.1706C23.8274 30.6117 23.5793 31.2098 23.5786 31.8336C23.5786 31.975 23.6348 32.1106 23.7348 32.2106C23.8348 32.3106 23.9704 32.3668 24.1118 32.3668C24.2532 32.3668 24.3889 32.3106 24.4888 32.2106C24.5888 32.1106 24.645 31.975 24.645 31.8336C24.6453 31.4925 24.781 31.1654 25.0221 30.9242C25.2633 30.683 25.5903 30.5473 25.9314 30.5469C26.0728 30.5469 26.2084 30.4907 26.3084 30.3907C26.4084 30.2907 26.4646 30.1551 26.4646 30.0137C26.4646 29.8723 26.4084 29.7366 26.3084 29.6366C26.2084 29.5366 26.0728 29.4805 25.9314 29.4805Z" fill="black"/>
<path id="Vector_3" d="M14.806 23.7208V24.9426C14.806 25.0841 14.8622 25.2197 14.9622 25.3197C15.0622 25.4197 15.1978 25.4758 15.3392 25.4758C15.4806 25.4758 15.6162 25.4197 15.7162 25.3197C15.8162 25.2197 15.8724 25.0841 15.8724 24.9426V23.7208C16.889 23.5906 17.8234 23.0947 18.5011 22.3259C19.1788 21.5571 19.5535 20.5679 19.5552 19.543C19.5552 19.4016 19.499 19.2659 19.399 19.1659C19.299 19.0659 19.1634 19.0098 19.0219 19.0098C18.4261 19.0102 17.8372 19.1373 17.2943 19.3825C16.7513 19.6278 16.2666 19.9856 15.8724 20.4324V19.4695C16.5928 18.6682 16.9782 17.621 16.9492 16.5439C16.9202 15.4668 16.4789 14.4418 15.7164 13.6805C15.6164 13.5805 15.4807 13.5244 15.3393 13.5244C15.1979 13.5244 15.0623 13.5805 14.9623 13.6805C14.2021 14.4431 13.7624 15.4676 13.7334 16.5439C13.7043 17.6203 14.0881 18.667 14.806 19.4695V20.4324C14.4119 19.9855 13.9274 19.6276 13.3844 19.3823C12.8414 19.137 12.2525 19.01 11.6567 19.0098C11.5153 19.0098 11.3797 19.0659 11.2797 19.1659C11.1797 19.2659 11.1235 19.4016 11.1235 19.543C11.1252 20.5678 11.4998 21.557 12.1775 22.3258C12.8551 23.0946 13.7895 23.5905 14.806 23.7208ZM18.4339 20.131C18.315 20.7518 18.0126 21.3226 17.5658 21.7696C17.1189 22.2166 16.5483 22.5192 15.9275 22.6383C16.0464 22.0175 16.3488 21.4467 16.7957 20.9997C17.2425 20.5527 17.8132 20.2501 18.4339 20.131ZM15.3398 14.8904C15.695 15.4132 15.8849 16.0307 15.8849 16.6628C15.8849 17.2948 15.695 17.9123 15.3398 18.4351C14.9847 17.912 14.7949 17.2943 14.7948 16.662C14.7948 16.0298 14.9845 15.4121 15.3395 14.8889L15.3398 14.8904ZM14.7511 22.6383C14.1307 22.5192 13.5602 22.2167 13.1134 21.77C12.6666 21.3232 12.3642 20.7527 12.2451 20.1322C12.8656 20.2513 13.4361 20.5538 13.8828 21.0005C14.3296 21.4473 14.6321 22.0178 14.7511 22.6383Z" fill="black"/>
<path id="Vector_4" d="M7.13672 19.5C7.13666 21.1224 7.61768 22.7083 8.51896 24.0572C9.42024 25.4062 10.7013 26.4575 12.2001 27.0784C13.6989 27.6993 15.3482 27.8617 16.9394 27.5452C18.5305 27.2288 19.9921 26.4475 21.1392 25.3004C22.2864 24.1532 23.0676 22.6917 23.3841 21.1005C23.7006 19.5093 23.5381 17.8601 22.9173 16.3612C22.2964 14.8624 21.245 13.5814 19.8961 12.6801C18.5471 11.7788 16.9612 11.2978 15.3389 11.2979C13.1643 11.3004 11.0795 12.1653 9.54184 13.703C8.00418 15.2406 7.13922 17.3255 7.13672 19.5ZM15.3389 12.3643C16.7502 12.3643 18.1299 12.7828 19.3033 13.5669C20.4768 14.3509 21.3914 15.4654 21.9315 16.7693C22.4716 18.0732 22.6129 19.508 22.3376 20.8922C22.0622 22.2764 21.3826 23.5478 20.3847 24.5458C19.3867 25.5438 18.1152 26.2234 16.731 26.4987C15.3468 26.774 13.9121 26.6327 12.6082 26.0926C11.3043 25.5526 10.1898 24.6379 9.40572 23.4645C8.62163 22.291 8.20312 20.9114 8.20312 19.5C8.2053 17.6082 8.9578 15.7944 10.2956 14.4567C11.6333 13.1189 13.447 12.3664 15.3389 12.3643Z" fill="black"/>
<path id="Vector_5" d="M35.5454 34.0947C35.4881 33.3776 35.2074 32.6965 34.7428 32.1472C34.2783 31.5979 33.6532 31.2081 32.9555 31.0326C32.9555 31.0058 32.9555 30.979 32.9555 30.9525C32.9543 30.0924 32.6292 29.2643 32.0448 28.6332C31.4604 28.0021 30.6598 27.6143 29.8023 27.547C29.7749 27.4273 29.7414 27.3112 29.7018 27.1966C30.0346 24.6862 30.2123 22.1577 30.2337 19.6254V19.375C30.2337 12.9698 28.7274 5.71615 28.5817 5.0303V1.92188C28.5817 1.78046 28.5255 1.64484 28.4256 1.54484C28.3256 1.44485 28.1899 1.38867 28.0485 1.38867H3.57389C3.50386 1.38863 3.4345 1.4024 3.3698 1.42918C3.30509 1.45596 3.24629 1.49523 3.19677 1.54475C3.14725 1.59427 3.10798 1.65307 3.08119 1.71778C3.05441 1.78249 3.04065 1.85184 3.04069 1.92188V5.02969C2.89474 5.71706 1.38867 12.9701 1.38867 19.375V19.6254C1.38867 26.0303 2.89474 33.2834 3.04069 33.9701V37.0779C3.04065 37.148 3.05441 37.2173 3.08119 37.282C3.10798 37.3467 3.14725 37.4055 3.19677 37.4551C3.24629 37.5046 3.30509 37.5439 3.3698 37.5706C3.4345 37.5974 3.50386 37.6112 3.57389 37.6111H37.0785C37.1486 37.6112 37.2179 37.5974 37.2826 37.5706C37.3473 37.5439 37.4061 37.5046 37.4557 37.4551C37.5052 37.4055 37.5445 37.3467 37.5712 37.282C37.598 37.2173 37.6118 37.148 37.6117 37.0779C37.6148 36.4288 37.4181 35.7944 37.0485 35.2608C36.6789 34.7272 36.1541 34.3201 35.5454 34.0947ZM4.10709 2.45508H27.5153V4.55346H4.10709V2.45508ZM2.45508 19.375C2.45508 13.6825 3.66926 7.28955 4.00898 5.61987H27.6143C27.9525 7.28955 29.1682 13.6825 29.1682 19.375V19.6254C29.1546 21.672 29.031 23.7163 28.7981 25.7497C28.3299 25.2906 27.7481 24.9643 27.1122 24.8044C26.4763 24.6445 25.8094 24.6567 25.1798 24.8397C24.5501 25.0226 23.9806 25.3699 23.5295 25.8457C23.0784 26.3215 22.762 26.9088 22.6129 27.5473C21.756 27.6156 20.9562 28.004 20.3726 28.6352C19.789 29.2663 19.4644 30.0941 19.4633 30.9537C19.4633 30.9802 19.4633 31.007 19.4633 31.0339C18.8864 31.1796 18.357 31.4724 17.9267 31.8835C17.4965 32.2946 17.18 32.8102 17.0082 33.3799H4.00777C3.66926 31.7103 2.45386 25.3173 2.45386 19.6248L2.45508 19.375ZM4.10709 34.447H16.1937C15.8394 34.6874 15.5376 34.9974 15.3067 35.3582C15.0759 35.7189 14.9208 36.1228 14.851 36.5453H4.10709V34.447ZM21.7899 36.5453C21.8964 36.2782 22.0805 36.049 22.3184 35.8874C22.5563 35.7257 22.8372 35.6391 23.1248 35.6386C23.2662 35.6386 23.4018 35.5824 23.5018 35.4824C23.6018 35.3824 23.658 35.2468 23.658 35.1054C23.658 34.964 23.6018 34.8284 23.5018 34.7284C23.4018 34.6284 23.2662 34.5722 23.1248 34.5722C22.553 34.5731 21.9987 34.7691 21.5536 35.1279C21.1084 35.4868 20.7991 35.9868 20.6769 36.5453H15.939C16.0357 36.1687 16.2347 35.8263 16.514 35.5558C16.7933 35.2854 17.142 35.0975 17.5216 35.0131C17.6439 34.9853 17.7525 34.9153 17.8283 34.8154C17.9042 34.7155 17.9424 34.592 17.9362 34.4668L17.9326 34.408C17.9326 34.3885 17.9295 34.3687 17.9295 34.3489C17.9323 33.7598 18.1553 33.1932 18.5546 32.7602C18.954 32.3272 19.5008 32.0592 20.0876 32.0089C20.162 32.0029 20.2343 31.9814 20.2998 31.9457C20.3653 31.9101 20.4226 31.8611 20.468 31.8019C20.5134 31.7427 20.5459 31.6747 20.5633 31.6021C20.5808 31.5296 20.5829 31.4542 20.5694 31.3809C20.5426 31.2403 20.5288 31.0975 20.5282 30.9543C20.5289 30.3312 20.7767 29.7337 21.2173 29.2931C21.658 28.8524 22.2554 28.6046 22.8786 28.604C22.9145 28.604 22.9499 28.6067 22.9852 28.6091L23.0312 28.6122C23.1693 28.6208 23.3054 28.5754 23.4106 28.4856C23.5158 28.3957 23.582 28.2685 23.5952 28.1308C23.658 27.4817 23.9602 26.8793 24.443 26.4409C24.9258 26.0026 25.5546 25.7597 26.2067 25.7597C26.8588 25.7597 27.4875 26.0026 27.9703 26.4409C28.4531 26.8793 28.7554 27.4817 28.8182 28.1308C28.8311 28.269 28.8975 28.3966 29.0032 28.4865C29.1089 28.5764 29.2455 28.6215 29.384 28.6122L29.4236 28.6095C29.462 28.6067 29.5004 28.6037 29.5394 28.6037C29.8846 28.6022 30.2258 28.6772 30.5387 28.8231C30.8515 28.9691 31.1282 29.1824 31.3489 29.4479C31.5696 29.7134 31.7289 30.0243 31.8153 30.3586C31.9017 30.6928 31.913 31.042 31.8486 31.3812C31.835 31.4545 31.837 31.5299 31.8545 31.6024C31.8719 31.6749 31.9043 31.743 31.9497 31.8022C31.9951 31.8614 32.0524 31.9104 32.1179 31.946C32.1834 31.9817 32.2556 32.0032 32.33 32.0092C32.9169 32.0595 33.4637 32.3275 33.8631 32.7605C34.2625 33.1934 34.4855 33.7601 34.4884 34.3492C34.4884 34.3687 34.4884 34.3875 34.4857 34.4067L34.4817 34.4677C34.4756 34.5929 34.5137 34.7163 34.5895 34.8162C34.6653 34.9161 34.7738 34.9861 34.8961 35.014C35.2756 35.0984 35.6244 35.2862 35.9037 35.5567C36.183 35.8271 36.382 36.1696 36.4786 36.5463L21.7899 36.5453Z" fill="black"/>
<path id="Vector_6" d="M6.22998 8.19629H10.6641C10.8055 8.19629 10.9411 8.14011 11.0411 8.04012C11.1411 7.94012 11.1973 7.8045 11.1973 7.66309C11.1973 7.52167 11.1411 7.38605 11.0411 7.28605C10.9411 7.18606 10.8055 7.12988 10.6641 7.12988H6.22998C6.08857 7.12988 5.95294 7.18606 5.85295 7.28605C5.75295 7.38605 5.69678 7.52167 5.69678 7.66309C5.69678 7.8045 5.75295 7.94012 5.85295 8.04012C5.95294 8.14011 6.08857 8.19629 6.22998 8.19629Z" fill="black"/>
<path id="Vector_7" d="M12.8037 8.19629H14.0161C14.1575 8.19629 14.2931 8.14011 14.3931 8.04012C14.4931 7.94012 14.5493 7.8045 14.5493 7.66309C14.5493 7.52167 14.4931 7.38605 14.3931 7.28605C14.2931 7.18606 14.1575 7.12988 14.0161 7.12988H12.8037C12.6623 7.12988 12.5267 7.18606 12.4267 7.28605C12.3267 7.38605 12.2705 7.52167 12.2705 7.66309C12.2705 7.8045 12.3267 7.94012 12.4267 8.04012C12.5267 8.14011 12.6623 8.19629 12.8037 8.19629Z" fill="black"/>
</g>
</g>
</svg>
