<svg width="39" height="39" viewBox="0 0 39 39" fill="none" xmlns="http://www.w3.org/2000/svg">
<g id="magistrate 2">
<path id="Vector" d="M19.5002 23.4063C19.4107 23.4063 19.3223 23.3865 19.2413 23.3484L0.350628 14.4607C0.24594 14.4115 0.157421 14.3335 0.0954173 14.2358C0.0334141 14.1382 0.000488281 14.0249 0.000488281 13.9092C0.000488281 13.7935 0.0334141 13.6803 0.0954173 13.5826C0.157421 13.4849 0.24594 13.4069 0.350628 13.3577L19.2413 4.46695C19.3223 4.4289 19.4107 4.40918 19.5002 4.40918C19.5898 4.40918 19.6782 4.4289 19.7592 4.46695L38.6498 13.3577C38.7545 13.4069 38.8431 13.4849 38.9051 13.5826C38.9671 13.6803 39 13.7935 39 13.9092C39 14.0249 38.9671 14.1382 38.9051 14.2358C38.8431 14.3335 38.7545 14.4115 38.6498 14.4607L19.7592 23.3484C19.6782 23.3865 19.5898 23.4063 19.5002 23.4063ZM2.04164 13.9092L19.5002 22.1358L36.9588 13.9092L19.5002 5.6918L2.04164 13.9092Z" fill="black"/>
<path id="Vector_2" d="M7.3125 24.375C7.15088 24.375 6.99589 24.3108 6.88161 24.1965C6.76733 24.0822 6.70312 23.9272 6.70312 23.7656V17.3672C6.70312 17.2056 6.76733 17.0506 6.88161 16.9363C6.99589 16.822 7.15088 16.7578 7.3125 16.7578C7.47412 16.7578 7.62911 16.822 7.74339 16.9363C7.85767 17.0506 7.92188 17.2056 7.92188 17.3672V23.7656C7.92188 23.9272 7.85767 24.0822 7.74339 24.1965C7.62911 24.3108 7.47412 24.375 7.3125 24.375Z" fill="black"/>
<path id="Vector_3" d="M31.6875 24.375C31.5259 24.375 31.3709 24.3108 31.2566 24.1965C31.1423 24.0822 31.0781 23.9272 31.0781 23.7656V17.3672C31.0781 17.2056 31.1423 17.0506 31.2566 16.9363C31.3709 16.822 31.5259 16.7578 31.6875 16.7578C31.8491 16.7578 32.0041 16.822 32.1184 16.9363C32.2327 17.0506 32.2969 17.2056 32.2969 17.3672V23.7656C32.2969 23.9272 32.2327 24.0822 32.1184 24.1965C32.0041 24.3108 31.8491 24.375 31.6875 24.375Z" fill="black"/>
<path id="Vector_4" d="M19.5 30.6302C12.608 30.6302 6.70312 26.8552 6.70312 23.7656C6.70312 23.604 6.76733 23.449 6.88161 23.3347C6.99589 23.2205 7.15088 23.1562 7.3125 23.1562C7.47412 23.1562 7.62911 23.2205 7.74339 23.3347C7.85767 23.449 7.92188 23.604 7.92188 23.7656C7.92188 25.6973 12.7969 29.4115 19.5 29.4115C26.2031 29.4115 31.0781 25.6973 31.0781 23.7656C31.0781 23.604 31.1423 23.449 31.2566 23.3347C31.3709 23.2205 31.5259 23.1562 31.6875 23.1562C31.8491 23.1562 32.0041 23.2205 32.1184 23.3347C32.2327 23.449 32.2969 23.604 32.2969 23.7656C32.2969 26.8552 26.392 30.6302 19.5 30.6302Z" fill="black"/>
<path id="Vector_5" d="M28.6408 30.773C28.4792 30.773 28.3242 30.7088 28.2099 30.5945C28.0957 30.4802 28.0315 30.3253 28.0315 30.1636V18.6586L19.229 14.2559C19.1549 14.2218 19.0883 14.1732 19.0333 14.113C18.9783 14.0527 18.936 13.982 18.9088 13.905C18.8816 13.8281 18.8702 13.7464 18.8752 13.665C18.8801 13.5835 18.9014 13.5039 18.9377 13.4308C18.9741 13.3578 19.0247 13.2927 19.0867 13.2396C19.1486 13.1865 19.2206 13.1463 19.2983 13.1216C19.3761 13.0968 19.458 13.0879 19.5393 13.0953C19.6205 13.1028 19.6995 13.1266 19.7714 13.1651L28.912 17.7354C29.0135 17.7859 29.099 17.8637 29.1587 17.96C29.2185 18.0563 29.2502 18.1675 29.2502 18.2808V30.1636C29.2502 30.3253 29.186 30.4802 29.0717 30.5945C28.9575 30.7088 28.8025 30.773 28.6408 30.773Z" fill="black"/>
<path id="Vector_6" d="M28.6406 33.5156C28.2791 33.5156 27.9256 33.4084 27.625 33.2075C27.3243 33.0067 27.09 32.7211 26.9517 32.3871C26.8133 32.053 26.7771 31.6855 26.8476 31.3309C26.9182 30.9762 27.0923 30.6505 27.3479 30.3948C27.6036 30.1392 27.9294 29.965 28.284 29.8945C28.6386 29.824 29.0062 29.8602 29.3402 29.9985C29.6743 30.1369 29.9598 30.3712 30.1607 30.6718C30.3615 30.9725 30.4688 31.3259 30.4688 31.6875C30.4688 32.1723 30.2761 32.6373 29.9333 32.9802C29.5905 33.323 29.1255 33.5156 28.6406 33.5156ZM28.6406 31.0781C28.5201 31.0781 28.4023 31.1139 28.3021 31.1808C28.2019 31.2478 28.1238 31.343 28.0776 31.4543C28.0315 31.5657 28.0194 31.6882 28.043 31.8064C28.0665 31.9246 28.1245 32.0332 28.2097 32.1184C28.295 32.2036 28.4035 32.2617 28.5217 32.2852C28.6399 32.3087 28.7625 32.2966 28.8738 32.2505C28.9852 32.2044 29.0803 32.1263 29.1473 32.0261C29.2143 31.9258 29.25 31.808 29.25 31.6875C29.25 31.5259 29.1858 31.3709 29.0715 31.2566C28.9572 31.1423 28.8022 31.0781 28.6406 31.0781Z" fill="black"/>
<path id="Vector_7" d="M29.5545 37.172H27.7263C27.6418 37.1723 27.558 37.155 27.4805 37.1211C27.403 37.0873 27.3334 37.0378 27.276 36.9756C27.2187 36.9134 27.175 36.8399 27.1476 36.7599C27.1202 36.6799 27.1098 36.5951 27.117 36.5108L27.4216 32.8545C27.4277 32.6929 27.4977 32.5403 27.6163 32.4303C27.7348 32.3203 27.8922 32.2619 28.0539 32.268C28.2155 32.2741 28.3681 32.3441 28.4781 32.4626C28.5881 32.5812 28.6465 32.7386 28.6404 32.9002C28.6343 32.7386 28.6927 32.5812 28.8027 32.4626C28.9127 32.3441 29.0653 32.2741 29.2269 32.268C29.3885 32.2619 29.5459 32.3203 29.6645 32.4303C29.7831 32.5403 29.8531 32.6929 29.8591 32.8545L30.1638 36.5108C30.171 36.5951 30.1606 36.6799 30.1332 36.7599C30.1058 36.8399 30.0621 36.9134 30.0047 36.9756C29.9474 37.0378 29.8778 37.0873 29.8003 37.1211C29.7227 37.155 29.639 37.1723 29.5545 37.172ZM28.3875 35.9532H28.8933L28.6404 32.9581C28.6389 32.9429 28.6389 32.9276 28.6404 32.9124C28.6419 32.9276 28.6419 32.9429 28.6404 32.9581L28.3875 35.9532Z" fill="black"/>
</g>
</svg>
